<svg width="719" height="755" viewBox="0 0 719 755" fill="none" xmlns="http://www.w3.org/2000/svg">
<circle cx="324.284" cy="377.66" r="262.499" fill="#FEEDE9"/>
<path d="M324.284 640.159C469.258 640.159 586.783 522.634 586.783 377.66C586.783 283.194 536.884 200.383 462.006 154.147C732.271 582.689 282.346 734.389 106.802 524.701C153.999 594.371 233.794 640.159 324.284 640.159Z" fill="#FDD1C7"/>
<path d="M476.302 290.335C497.831 357.684 492.521 416.886 474.213 465.875C465.864 488.214 483.545 508.239 494.094 486.851C526.307 421.54 528.546 342.44 497.425 275.524C487.955 255.161 469.464 268.944 476.302 290.335Z" fill="#FBFDFD"/>
<mask id="mask0_2_270" style="mask-type:alpha" maskUnits="userSpaceOnUse" x="61" y="115" width="526" height="526">
<circle cx="324.284" cy="377.66" r="262.499" fill="#FEEDE9"/>
</mask>
<g mask="url(#mask0_2_270)">
<path d="M305.293 631.926L320.142 636.535L322.213 670.707H303.574L305.293 631.926Z" fill="#FA704F"/>
<path d="M294.575 352.219C302.63 398.476 319.289 494.834 321.486 510.212C323.333 523.14 319.096 593.444 319.458 643.782H303.574C288.745 558.472 267.883 386.86 268.762 378.951C269.641 371.043 270.959 354.42 271.508 347.098L294.575 352.219Z" fill="#639CFF"/>
<path d="M294.575 352.22C299.045 377.885 306.163 418.973 311.989 453.095L286.887 385.543V350.513L294.575 352.22Z" fill="#0948EB"/>
<path d="M271.509 347.097C270.959 354.42 264.464 370.007 263.585 377.915C262.706 385.824 288.745 558.472 303.574 643.782L305.127 643.264L270.959 382.246L273.156 347.463L271.509 347.097Z" fill="#0948EB"/>
</g>
<path d="M387.392 263.618L397.827 182.885C388.158 171.459 373.903 169.945 363.227 159.269L347.849 146.088L308.855 147.736C302.082 153.045 287.546 164.322 283.592 166.958C266.017 169.704 263.82 175.196 260.525 179.59C257.23 183.984 264.919 320.187 264.919 333.917C310.503 339.409 376.957 333.368 379.154 326.228C386.293 319.637 384.646 313.596 382.449 310.85L387.392 263.618Z" fill="#0F6AFF"/>
<rect x="340" y="216" width="27" height="4" fill="#FCB91D"/>
<path d="M335.675 308.798C331.016 314.645 335.675 334.999 335.675 334.999C321.813 337.833 288.254 341.584 264.919 333.916C264.919 325.033 261.881 276.551 260.501 234.001L335.501 236.001C335.501 241.006 337.229 243.044 337.229 243.044C337.229 243.044 344.995 236.831 348.619 240.973C352.243 245.115 350.69 272.038 350.69 272.038L386.239 274.627L382.449 310.849C382.449 310.849 343.959 298.404 335.675 308.798Z" fill="#0F4AE5"/>
<path d="M380.719 341.61V324.332C336.193 339.347 289.71 336.196 270.956 333.489V348.107C300.52 358.069 350.172 349.702 380.719 341.61Z" fill="#1156E9"/>
<path d="M366.762 162.565C365.378 161.351 364.166 160.21 363.226 159.269L349.129 147.187C351.472 161.686 330.945 172.633 320.388 176.295C326.243 180.137 339.909 191.851 342.995 194.496L343 194.5C344.318 186.592 360 169.5 366.762 162.565Z" fill="#0B4AB1"/>
<path d="M387.392 263.619L397.826 182.886C396.805 181.678 395.799 180.581 394.822 179.59C387.392 212 379.703 248.241 381.35 284.489C382.669 313.487 369.707 326.347 363.116 329.509C372.731 327.601 377.492 327.72 379.703 325.679C386.843 319.089 384.646 313.597 382.449 310.851L387.392 263.619Z" fill="#0F4AE5"/>
<path d="M260.601 178.326C259.492 179.804 259.551 197.482 260.219 219.133C261.053 204.853 267.774 176.075 287.985 175.196C286.667 178.711 286.338 183.251 286.338 185.082C293.111 183.8 307.757 179.59 312.15 172.999C302.265 169.155 294.996 165.86 306.045 149.933C292.307 160.648 270.417 165.239 260.601 178.326Z" fill="#0B4AB1"/>
<path d="M260.601 178.326C257.306 182.719 264.918 320.186 264.918 333.917C259.792 327.326 233.064 278.447 233.064 278.447C243.17 210.785 255.658 183.085 260.601 178.326Z" fill="#0B4AB1"/>
<path d="M330.273 128.518C320.602 128.518 313.338 124.423 307.756 117.94V153.477L295.29 164.35C297.853 167.828 305.449 174.871 318.191 175.749C330.932 176.628 343.637 163.667 348.397 157.076V121.884C343.603 126.035 337.683 128.518 330.273 128.518Z" fill="#FFB08F"/>
<path d="M330.274 128.518C320.603 128.518 313.339 124.423 307.757 117.941V144.676C318.741 143.601 344.004 136.895 348.398 128.518C344.021 131.621 336.591 128.518 330.274 128.518Z" fill="#FF7034"/>
<path d="M285.239 58.7666C331.372 17.5758 372.014 57.1193 373.661 60.4145C366.965 85.7626 365.972 134.558 330.274 134.558C294.575 134.558 291.744 84.7876 285.239 58.7666Z" fill="#FFB08F"/>
<circle cx="356" cy="99.9998" r="5" fill="#FF7034"/>
<circle cx="305" cy="99.9998" r="5" fill="#FF7034"/>
<path d="M292.532 92.0148C292.562 92.1442 292.587 92.2668 292.609 92.3818C292.583 92.2604 292.557 92.1381 292.532 92.0148C291.798 88.8392 288.58 81.5351 284.346 80.2651C278.837 78.6129 273.328 74.7583 277.735 67.0484C284.346 56.5847 287.651 59.3382 289.855 55.4833C292.058 51.6285 399.479 32.3537 373.588 85.2224C378.819 95.8208 368.216 91.016 367.304 90.8043C367.288 90.8352 367.273 90.8438 367.258 90.8286C367.225 90.7964 367.243 90.7902 367.304 90.8043C367.818 89.7793 368.388 64.1823 360.367 60.4401C352.104 56.5849 340.856 56.5863 335.347 63.7457C329.839 70.905 322.356 56.0344 319.051 51.6286C316.664 52.5465 313.312 57.6884 314.965 68.7018C316.618 79.7152 302.525 72.0051 297.567 68.7018C292.668 65.4381 290.459 81.8476 292.532 92.0148Z" fill="#553627"/>
<path d="M335.347 63.7457C340.856 56.5863 352.104 56.5849 360.367 60.4401C362.1 61.2487 363.432 63.0778 364.45 65.4589L365.186 61.8346C368.5 73.8464 374.506 69.748 377.095 66.1974C369.972 37.724 291.731 52.1993 289.854 55.4833C288.554 57.7594 286.868 57.7317 284.346 59.4809C285.531 64.6393 291.661 64.4734 295.29 63.7457C286.074 68.5881 290.137 84.8541 292.609 92.3818C290.405 82.2484 292.609 65.3985 297.567 68.7018C302.524 72.0051 316.617 79.7152 314.965 68.7018C313.312 57.6884 316.664 52.5465 319.051 51.6286C322.356 56.0344 329.838 70.905 335.347 63.7457Z" fill="#3C1A0E"/>
<path d="M322.036 6.59047C322.036 2.95066 324.987 0 328.626 0H329.725C333.365 0 336.315 2.95066 336.315 6.59047H322.036Z" fill="#012280"/>
<path d="M307.756 59.3102C295.454 64.1432 287.619 60.9578 285.239 58.7609C331.372 17.5702 372.013 57.1137 373.661 60.4089C364.874 63.7041 358.833 62.6726 356.636 61.507C329.725 47.2276 323.134 53.2689 307.756 59.3102Z" fill="#012280"/>
<path d="M356.636 61.5109C329.725 47.2315 323.134 53.2728 307.756 59.3141C304.862 60.451 302.216 61.1442 299.829 61.5109C308.499 52.1392 333.293 39.2424 363.116 62.6292C360.002 62.6978 357.789 62.1229 356.636 61.5109Z" fill="#01154E"/>
<path d="M285.239 58.7628C331.372 17.572 372.014 57.1155 373.661 60.4107C380.801 28.557 358.283 3.84277 329.176 3.84277C312.15 3.84277 276.452 18.6701 285.239 58.7628Z" fill="#03013D"/>
<path d="M309.404 20.8682C303.692 26.5799 303.362 40.2034 303.912 46.0266C323.884 36.4181 341.772 40.1326 354.439 46.2166L354.439 46.2157C354.622 40.8781 354.988 30.2044 352.791 25.2618C350.594 20.319 338.512 10.4509 330.823 3.86928C330.276 3.85165 329.727 3.84277 329.175 3.84277C328.306 3.84277 327.388 3.88144 326.429 3.96017C323.134 7.39934 315.115 15.1564 309.404 20.8682Z" fill="#8CB5FE"/>
<path d="M288.534 182.335C290.731 166.518 302.265 153.044 307.757 148.284V153.776C295.015 163.442 306.475 170.252 313.798 172.449C308.855 175.378 296.882 181.456 288.534 182.335Z" fill="white"/>
<path d="M307.756 148.284V153.776C299.629 159.941 301.348 164.944 305.559 168.33C303.46 168.055 299.122 165.748 298.566 158.719C301.931 153.972 305.4 150.326 307.756 148.284Z" fill="#D1E1FF"/>
<path d="M348.398 144.991C347.519 163.005 324.965 170.804 313.798 172.451C323.684 171.353 332.471 183.435 339.611 187.28C341.807 182.337 356.819 166.959 363.226 159.27C359.565 155.792 351.473 148.067 348.398 144.991Z" fill="white"/>
<path d="M348.398 144.991C348.075 151.613 344.823 156.855 340.284 160.918C344.087 160.02 352.682 157.175 356.636 152.98C353.424 149.901 350.123 146.715 348.398 144.991Z" fill="#D1E1FF"/>
<path d="M313.797 172.451C317.233 172.069 320.536 173.279 323.683 175.182C322.951 184.89 321.706 206.611 322.585 215.838H304.461L305.559 176.844L313.797 172.451Z" fill="white"/>
<path d="M313.798 172.451C317.233 172.069 320.536 173.279 323.684 175.182C309.387 178.535 305.291 191.907 304.936 198.996L304.91 199.911C304.911 199.62 304.92 199.314 304.936 198.996L305.56 176.844L313.798 172.451Z" fill="#D1E1FF"/>
<circle cx="313.248" cy="205.405" r="3.29524" fill="#0F6AFF"/>
<circle cx="313.248" cy="193.322" r="3.29524" fill="#0F6AFF"/>
<circle cx="313.248" cy="181.238" r="3.29524" fill="#0F6AFF"/>
<path d="M325.178 655.692L363.491 660.184L359.021 701.254L325.178 696.12V655.692Z" fill="#FFB08F"/>
<path d="M325.178 655.692L363.491 660.191L359.929 692.97C357.198 674 337.698 675.937 325.178 675.937V655.692Z" fill="#FF7034"/>
<path d="M367.597 737.844C348.767 748.724 328.368 751.616 320.523 746.734C320.523 746.734 322.837 702.591 323.138 700.184C323.439 697.778 324.811 694.23 326.799 693.002C324.707 680.83 344.897 669.148 356.613 690.613C357.853 691.333 359.003 692.708 359.752 694.953C361.425 699.975 364.982 711.342 366.551 716.398L367.552 736.919C367.639 737.235 367.657 737.543 367.597 737.844Z" fill="#FCB91D"/>
<path d="M367.598 737.843C348.768 748.722 328.369 741.678 320.524 736.796C336.738 715.874 359.753 727.381 367.598 734.704V737.843Z" fill="#FA8D74"/>
<path d="M367.598 737.842C348.768 748.721 328.369 741.677 320.523 736.795C320.349 738.016 320 741.921 320 747.779C341.759 758.24 360.798 753.184 367.598 749.348V737.842Z" fill="#FA8D74"/>
<path d="M367.598 737.842C348.768 748.721 328.369 741.677 320.523 736.795C320.349 738.016 320 741.921 320 747.779C341.759 758.24 360.798 753.184 367.598 749.348V737.842Z" stroke="#A70303" stroke-opacity="0.32"/>
<path d="M359.752 694.955C361.426 699.976 364.983 711.344 366.552 716.4L367.553 736.92C367.639 737.236 367.658 737.545 367.598 737.846L367.553 736.92C366.435 732.84 353.999 727.569 353.999 723.2L350.86 691.817C351.478 690.788 352.662 690.083 353.999 689.988C354.844 689.928 355.751 690.113 356.614 690.614C357.854 691.335 359.004 692.71 359.752 694.955Z" fill="#FFD26A"/>
<path d="M323.139 700.185L320.5 737.001C321.895 734.56 328.383 727.972 332.03 723.198C334.646 719.776 334.123 704.891 333.077 696.495C332.629 696.192 332.272 695.851 332.03 695.477C331.12 694.07 330.242 693.24 329.415 692.846C328.466 692.394 327.585 692.517 326.8 693.003C324.812 694.231 323.439 697.778 323.139 700.185Z" fill="#FFD26A"/>
<path d="M333.077 696.496C332.629 696.193 332.272 695.852 332.031 695.478C331.12 694.071 330.242 693.241 329.415 692.847C332.031 686.229 340.609 676.392 353.999 689.988C352.662 690.083 351.478 690.788 350.86 691.817C348.043 698.861 337.015 699.159 333.077 696.496Z" fill="#FCB91D"/>
<path d="M356.614 690.613C344.898 669.148 324.708 680.83 326.8 693.002C327.585 692.517 328.467 692.394 329.415 692.845C332.031 686.227 340.609 676.39 353.999 689.987C354.845 689.927 355.751 690.111 356.614 690.613Z" fill="#FCB91D"/>
<path d="M353.999 689.986C340.609 676.389 332.03 686.226 329.415 692.844C329.056 692.674 328.707 692.585 328.369 692.567C328.543 688.654 331.403 680.829 341.445 680.829C344.584 680.829 351.045 683.451 354.614 689.986C354.406 689.971 354.201 689.971 353.999 689.986Z" fill="#FEFFFF"/>
<path d="M330.985 721.104V723.196C341.027 719.848 353.999 721.801 359.23 723.196V721.104C347.095 716.919 335.343 719.36 330.985 721.104Z" fill="#FEFFFF"/>
<path d="M357.137 712.737L330.985 720.06V721.629L357.66 715.353L357.137 712.737Z" fill="#FEFFFF"/>
<path d="M330.461 709.077L355.045 715.877L355.568 714.831L332.553 706.462L330.461 709.077Z" fill="#FEFFFF"/>
<path d="M356.091 709.077L333.6 716.923L330.985 714.831L355.568 706.462L356.091 709.077Z" fill="#FEFFFF"/>
<path d="M331.508 700.185L353.476 706.985L350.861 708.031L330.985 703.846L331.508 700.185Z" fill="#FEFFFF"/>
<path d="M354.522 702.276L333.6 708.552V704.891L354.522 699.66V702.276Z" fill="#FEFFFF"/>
<path d="M333.077 697.569L351.906 700.707V699.138L333.077 694.43V697.569Z" fill="#FEFFFF"/>
<path d="M351.383 695.476L333.6 700.706L333.077 698.614L351.383 692.86V695.476Z" fill="#FEFFFF"/>
<ellipse cx="350.86" cy="734.183" rx="7.32275" ry="3.66138" transform="rotate(17.9311 350.86 734.183)" fill="#FFEFEB"/>
<path d="M382.998 417.945C388.27 359.51 383.364 342.704 380.252 341.606C361.611 346.548 324.213 353.8 294.575 352.219C302.63 398.476 310.179 494.309 312.376 509.686C314.573 525.064 314.264 622.622 314.447 669.671C314.447 673.947 370.781 675.366 370.915 672.777C373.295 626.827 378.165 532.62 378.604 523.393C379.153 511.86 376.956 512.958 375.309 510.212C378.824 506.697 376.773 503.255 375.309 501.974C376.041 491.722 378.604 460.564 382.998 417.945Z" fill="#8CB6FF"/>
<path d="M317.68 671.517C317.68 671.517 333.086 674.33 355.867 673.812C335.675 662.422 320.142 663.457 317.554 648.451C317.612 656.928 317.653 664.749 317.68 671.517Z" fill="#F6FAFF"/>
<path d="M311.418 510.015C313.615 525.393 314.264 622.622 314.447 669.67C314.447 669.67 315.174 671.608 319.624 671.741C319.624 665.528 320.754 655.554 320.754 655.554C320.683 653.3 320.614 650.913 320.548 648.415C319.434 606.077 319.328 531.628 326.796 523.745C324.05 522.097 320.205 519.351 319.107 513.31C318.008 507.269 302.264 372.261 307.756 357.757C303.278 358.354 299.16 359.032 295.882 359.729C304.304 408.165 309.334 495.427 311.418 510.015Z" fill="#5090FF"/>
<path d="M375.309 501.974C376.041 491.722 378.604 460.564 382.998 417.946C383.237 415.298 383.455 412.736 383.653 410.257C375.389 412.454 370.253 404.108 368.718 399.661C363.446 405.245 360.297 465.436 359.382 494.834C363.226 498.496 370.036 507.356 366.521 513.507C345.828 549.721 363.775 629.873 363.775 672.261L371.399 663.977L372.62 639.825C375.095 591.981 378.254 530.741 378.604 523.393C379.153 511.86 376.956 512.958 375.309 510.212C378.824 506.697 376.773 503.256 375.309 501.974Z" fill="#F6FAFF"/>
<path d="M294.575 352.219C324.213 353.8 361.611 346.548 380.251 341.606C383.127 342.621 387.533 357.042 384.03 405.314C377.951 405.314 372.91 403.117 368.718 399.661C354.397 387.856 349.973 361.356 347.848 357.533C346.116 354.415 324.442 355.531 307.756 357.757C303.278 358.355 299.16 359.032 295.882 359.73C295.426 357.106 294.989 354.596 294.575 352.219Z" fill="#639CFF"/>
<path d="M354 354.942L357.5 367.942M357.5 367.942C358 370.442 358.4 376.342 360 377.942C361.6 379.542 370.167 389.608 375 394.942M357.5 367.942L358.5 354.942" stroke="white"/>
<path d="M383 388.442C383.5 387.942 380.001 355.443 378.001 350.941C376.001 346.438 365.269 350.759 363.001 353.938C360.5 357.442 360.762 368.999 361.501 373.438C362 376.442 376.5 389.942 377.5 390.942C378.5 391.942 382.5 388.942 383 388.442Z" fill="white"/>
<path d="M375.309 501.974C376.041 491.722 378.604 460.564 382.998 417.945C379.922 421.899 375.492 474.147 373.661 499.777L367.071 499.228C368.718 501.058 372.563 505.379 374.759 508.015C368.718 511.31 372.563 515.155 374.759 519.548C376.517 523.063 372.044 605.591 369.588 646.415L372.62 639.824C375.095 591.98 378.254 530.74 378.604 523.393C379.153 511.859 376.956 512.958 375.309 510.212C378.824 506.697 376.773 503.255 375.309 501.974Z" fill="#2877FF"/>
<path d="M308.234 405.29C309.149 405.473 312.188 405.07 317.021 401.995" stroke="#F6FAFF"/>
<path d="M308.783 411.33C310.431 411.513 315.374 411.11 321.964 408.035" stroke="#F6FAFF"/>
<rect x="138.601" y="244.947" width="192.222" height="123.022" fill="#FCB91D"/>
<path d="M330.824 244.948H138.602V259.001H330.824V244.948Z" fill="#C78C04"/>
<path d="M330.823 367.969V244.947C284.874 328.989 203.035 314.77 138.601 367.969H330.823Z" fill="#F2A900"/>
<rect x="127" y="239.001" width="207" height="16" fill="#FFE5A9"/>
<rect x="127" y="249.001" width="207" height="6" fill="#F4D386"/>
<rect x="277" y="339.409" width="42.8381" height="17.5746" fill="white"/>
<rect x="281" y="341.001" width="2" height="14" fill="#03013D" fill-opacity="0.36"/>
<rect x="286" y="341.001" width="2" height="14" fill="#03013D" fill-opacity="0.36"/>
<rect x="291" y="341.001" width="2" height="14" fill="#03013D" fill-opacity="0.36"/>
<rect x="296" y="341.001" width="2" height="14" fill="#03013D" fill-opacity="0.36"/>
<rect x="301" y="341.001" width="2" height="14" fill="#03013D" fill-opacity="0.36"/>
<rect x="306" y="341.001" width="2" height="14" fill="#03013D" fill-opacity="0.36"/>
<rect x="311" y="341.001" width="2" height="14" fill="#03013D" fill-opacity="0.36"/>
<rect x="284" y="341.001" width="1" height="14" fill="#03013D" fill-opacity="0.36"/>
<rect x="289" y="341.001" width="1" height="14" fill="#03013D" fill-opacity="0.36"/>
<rect x="294" y="341.001" width="1" height="14" fill="#03013D" fill-opacity="0.36"/>
<rect x="299" y="341.001" width="1" height="14" fill="#03013D" fill-opacity="0.36"/>
<rect x="304" y="341.001" width="1" height="14" fill="#03013D" fill-opacity="0.36"/>
<rect x="309" y="341.001" width="1" height="14" fill="#03013D" fill-opacity="0.36"/>
<rect x="314" y="341.001" width="1" height="14" fill="#03013D" fill-opacity="0.36"/>
<path d="M173.201 371.813C168.785 371.813 172.102 367.419 174.848 367.419H186.931C186.748 366.138 187.04 362.147 189.677 356.436C192.972 349.296 200.661 354.788 200.112 356.985C204.505 350.944 212.194 356.436 211.096 358.083C216.039 352.591 221.531 358.083 222.08 359.181C228.121 359.181 230.867 361.378 230.867 371.813C230.867 382.248 225.375 383.346 222.08 382.248C216.588 387.191 212.743 384.994 209.997 383.346C205.604 386.641 201.759 384.994 199.013 383.346C191.983 387.3 188.029 383.895 186.931 381.698C185.832 372.911 181.988 371.813 173.201 371.813Z" fill="#FFB08F"/>
<path d="M200.112 359.733L199.014 381.152" stroke="#FF7034"/>
<path d="M211.096 360.279L209.997 381.698" stroke="#FF7034"/>
<path d="M219.884 360.279L218.785 381.698" stroke="#FF7034"/>
<path d="M339.554 295.873L349.989 299.718C350.517 294.439 349.015 282.566 354.749 277.75H349.989C346.694 277.75 345.595 246.445 347.243 243.15C338.895 241.392 336.076 255.598 335.71 262.921C322.895 257.612 296.826 248.312 295.068 253.585C293.97 256.881 306.419 263.288 311.544 264.57C310.995 267.682 306.994 277.75 306.602 283.243C305.723 295.545 325.824 298.071 339.554 295.873Z" fill="#FFB08F"/>
<path d="M339.554 295.873L349.989 299.718C350.517 294.439 349.016 282.566 354.749 277.75H349.989C346.694 277.75 345.596 246.445 347.243 243.15C329.986 264.799 356 280 341 288.5C329 295.3 313.068 287.829 306.602 283.243C305.723 295.545 325.824 298.071 339.554 295.873Z" fill="#FF7034"/>
<path d="M307.542 280.903L315.042 283.403" stroke="#FF7034"/>
<path d="M309.042 274.403L316.542 276.903" stroke="#FF7034"/>
<path d="M311.042 268.403L318.542 270.903" stroke="#FF7034"/>
<path d="M387.391 263.619L397.826 182.885C403.867 182.885 459.447 301.184 437.918 313.047C433.524 315.468 401.224 320.575 348.5 303C349.049 297.508 347.848 281.193 354.439 276.799C363.226 276.799 387.391 276.067 398.375 275.701L387.391 263.619Z" fill="#0F6AFF"/>
<path d="M387.391 263.617L398.375 275.7L424.737 272.404C422.906 271.855 416.169 271.086 403.867 272.404C391.565 273.723 391.235 240.184 392.608 223.25L387.391 263.617Z" fill="#0B4AB1"/>
<path d="M348.5 303C349 298 347.5 280.5 354.439 276.799C361.404 276.799 378.03 276.339 390.096 275.966C390.294 275.957 390.49 275.95 390.686 275.948C390.491 275.954 390.294 275.96 390.096 275.966C375.654 276.66 356.266 295.397 348.5 303Z" fill="#0B4AB1"/>
<circle cx="469" cy="45" r="4" fill="#1965FF"/>
<circle cx="691" cy="333" r="6" fill="#1965FF"/>
<circle cx="425" cy="18" r="6" fill="#FBD95F"/>
<circle r="2" transform="matrix(1 0 0 -1 437 64)" fill="#FAA1D4"/>
<circle cx="45" cy="654" r="10" fill="#F65C63"/>
<circle cx="62" cy="561" r="4" fill="#FCB91D"/>
<circle cx="125" cy="597" r="2" fill="#0F6AFF"/>
<circle cx="105" cy="641" r="2" fill="#02186B"/>
<g filter="url(#filter0_d_2_270)">
<rect x="504" y="395" width="175" height="164" rx="11" fill="white"/>
</g>
<path d="M529.576 532.084C529.024 532.084 528.528 531.988 528.088 531.796C527.656 531.596 527.316 531.324 527.068 530.98C526.82 530.628 526.692 530.224 526.684 529.768H527.848C527.888 530.16 528.048 530.492 528.328 530.764C528.616 531.028 529.032 531.16 529.576 531.16C530.096 531.16 530.504 531.032 530.8 530.776C531.104 530.512 531.256 530.176 531.256 529.768C531.256 529.448 531.168 529.188 530.992 528.988C530.816 528.788 530.596 528.636 530.332 528.532C530.068 528.428 529.712 528.316 529.264 528.196C528.712 528.052 528.268 527.908 527.932 527.764C527.604 527.62 527.32 527.396 527.08 527.092C526.848 526.78 526.732 526.364 526.732 525.844C526.732 525.388 526.848 524.984 527.08 524.632C527.312 524.28 527.636 524.008 528.052 523.816C528.476 523.624 528.96 523.528 529.504 523.528C530.288 523.528 530.928 523.724 531.424 524.116C531.928 524.508 532.212 525.028 532.276 525.676H531.076C531.036 525.356 530.868 525.076 530.572 524.836C530.276 524.588 529.884 524.464 529.396 524.464C528.94 524.464 528.568 524.584 528.28 524.824C527.992 525.056 527.848 525.384 527.848 525.808C527.848 526.112 527.932 526.36 528.1 526.552C528.276 526.744 528.488 526.892 528.736 526.996C528.992 527.092 529.348 527.204 529.804 527.332C530.356 527.484 530.8 527.636 531.136 527.788C531.472 527.932 531.76 528.16 532 528.472C532.24 528.776 532.36 529.192 532.36 529.72C532.36 530.128 532.252 530.512 532.036 530.872C531.82 531.232 531.5 531.524 531.076 531.748C530.652 531.972 530.152 532.084 529.576 532.084ZM533.559 528.688C533.559 528.016 533.695 527.428 533.967 526.924C534.239 526.412 534.611 526.016 535.083 525.736C535.563 525.456 536.095 525.316 536.679 525.316C537.255 525.316 537.755 525.44 538.179 525.688C538.603 525.936 538.919 526.248 539.127 526.624V525.424H540.231V532H539.127V530.776C538.911 531.16 538.587 531.48 538.155 531.736C537.731 531.984 537.235 532.108 536.667 532.108C536.083 532.108 535.555 531.964 535.083 531.676C534.611 531.388 534.239 530.984 533.967 530.464C533.695 529.944 533.559 529.352 533.559 528.688ZM539.127 528.7C539.127 528.204 539.027 527.772 538.827 527.404C538.627 527.036 538.355 526.756 538.011 526.564C537.675 526.364 537.303 526.264 536.895 526.264C536.487 526.264 536.115 526.36 535.779 526.552C535.443 526.744 535.175 527.024 534.975 527.392C534.775 527.76 534.675 528.192 534.675 528.688C534.675 529.192 534.775 529.632 534.975 530.008C535.175 530.376 535.443 530.66 535.779 530.86C536.115 531.052 536.487 531.148 536.895 531.148C537.303 531.148 537.675 531.052 538.011 530.86C538.355 530.66 538.627 530.376 538.827 530.008C539.027 529.632 539.127 529.196 539.127 528.7ZM544.752 526.324H543.372V532H542.28V526.324H541.428V525.424H542.28V524.956C542.28 524.22 542.468 523.684 542.844 523.348C543.228 523.004 543.84 522.832 544.68 522.832V523.744C544.2 523.744 543.86 523.84 543.66 524.032C543.468 524.216 543.372 524.524 543.372 524.956V525.424H544.752V526.324ZM552.026 528.46C552.026 528.668 552.014 528.888 551.99 529.12H546.734C546.774 529.768 546.994 530.276 547.394 530.644C547.802 531.004 548.294 531.184 548.87 531.184C549.342 531.184 549.734 531.076 550.046 530.86C550.366 530.636 550.59 530.34 550.718 529.972H551.894C551.718 530.604 551.366 531.12 550.838 531.52C550.31 531.912 549.654 532.108 548.87 532.108C548.246 532.108 547.686 531.968 547.19 531.688C546.702 531.408 546.318 531.012 546.038 530.5C545.758 529.98 545.618 529.38 545.618 528.7C545.618 528.02 545.754 527.424 546.026 526.912C546.298 526.4 546.678 526.008 547.166 525.736C547.662 525.456 548.23 525.316 548.87 525.316C549.494 525.316 550.046 525.452 550.526 525.724C551.006 525.996 551.374 526.372 551.63 526.852C551.894 527.324 552.026 527.86 552.026 528.46ZM550.898 528.232C550.898 527.816 550.806 527.46 550.622 527.164C550.438 526.86 550.186 526.632 549.866 526.48C549.554 526.32 549.206 526.24 548.822 526.24C548.27 526.24 547.798 526.416 547.406 526.768C547.022 527.12 546.802 527.608 546.746 528.232H550.898ZM559.27 523.636C560.182 523.636 560.97 523.808 561.634 524.152C562.306 524.488 562.818 524.972 563.17 525.604C563.53 526.236 563.71 526.98 563.71 527.836C563.71 528.692 563.53 529.436 563.17 530.068C562.818 530.692 562.306 531.172 561.634 531.508C560.97 531.836 560.182 532 559.27 532H556.666V523.636H559.27ZM559.27 531.1C560.35 531.1 561.174 530.816 561.742 530.248C562.31 529.672 562.594 528.868 562.594 527.836C562.594 526.796 562.306 525.984 561.73 525.4C561.162 524.816 560.342 524.524 559.27 524.524H557.758V531.1H559.27ZM571.151 528.46C571.151 528.668 571.139 528.888 571.115 529.12H565.859C565.899 529.768 566.119 530.276 566.519 530.644C566.927 531.004 567.419 531.184 567.995 531.184C568.467 531.184 568.859 531.076 569.171 530.86C569.491 530.636 569.715 530.34 569.843 529.972H571.019C570.843 530.604 570.491 531.12 569.963 531.52C569.435 531.912 568.779 532.108 567.995 532.108C567.371 532.108 566.811 531.968 566.315 531.688C565.827 531.408 565.443 531.012 565.163 530.5C564.883 529.98 564.743 529.38 564.743 528.7C564.743 528.02 564.879 527.424 565.151 526.912C565.423 526.4 565.803 526.008 566.291 525.736C566.787 525.456 567.355 525.316 567.995 525.316C568.619 525.316 569.171 525.452 569.651 525.724C570.131 525.996 570.499 526.372 570.755 526.852C571.019 527.324 571.151 527.86 571.151 528.46ZM570.023 528.232C570.023 527.816 569.931 527.46 569.747 527.164C569.563 526.86 569.311 526.632 568.991 526.48C568.679 526.32 568.331 526.24 567.947 526.24C567.395 526.24 566.923 526.416 566.531 526.768C566.147 527.12 565.927 527.608 565.871 528.232H570.023ZM573.684 523.12V532H572.592V523.12H573.684ZM576.109 524.356C575.901 524.356 575.725 524.284 575.581 524.14C575.437 523.996 575.365 523.82 575.365 523.612C575.365 523.404 575.437 523.228 575.581 523.084C575.725 522.94 575.901 522.868 576.109 522.868C576.309 522.868 576.477 522.94 576.613 523.084C576.757 523.228 576.829 523.404 576.829 523.612C576.829 523.82 576.757 523.996 576.613 524.14C576.477 524.284 576.309 524.356 576.109 524.356ZM576.637 525.424V532H575.545V525.424H576.637ZM580.946 530.992L582.986 525.424H584.15L581.57 532H580.298L577.718 525.424H578.894L580.946 530.992ZM591.225 528.46C591.225 528.668 591.213 528.888 591.189 529.12H585.933C585.973 529.768 586.193 530.276 586.593 530.644C587.001 531.004 587.493 531.184 588.069 531.184C588.541 531.184 588.933 531.076 589.245 530.86C589.565 530.636 589.789 530.34 589.917 529.972H591.093C590.917 530.604 590.565 531.12 590.037 531.52C589.509 531.912 588.853 532.108 588.069 532.108C587.445 532.108 586.885 531.968 586.389 531.688C585.901 531.408 585.517 531.012 585.237 530.5C584.957 529.98 584.817 529.38 584.817 528.7C584.817 528.02 584.953 527.424 585.225 526.912C585.497 526.4 585.877 526.008 586.365 525.736C586.861 525.456 587.429 525.316 588.069 525.316C588.693 525.316 589.245 525.452 589.725 525.724C590.205 525.996 590.573 526.372 590.829 526.852C591.093 527.324 591.225 527.86 591.225 528.46ZM590.097 528.232C590.097 527.816 590.005 527.46 589.821 527.164C589.637 526.86 589.385 526.632 589.065 526.48C588.753 526.32 588.405 526.24 588.021 526.24C587.469 526.24 586.997 526.416 586.605 526.768C586.221 527.12 586.001 527.608 585.945 528.232H590.097ZM593.758 526.492C593.95 526.116 594.222 525.824 594.574 525.616C594.934 525.408 595.37 525.304 595.882 525.304V526.432H595.594C594.37 526.432 593.758 527.096 593.758 528.424V532H592.666V525.424H593.758V526.492ZM602.807 525.424L598.847 535.096H597.719L599.015 531.928L596.363 525.424H597.575L599.639 530.752L601.679 525.424H602.807Z" fill="#60646D"/>
<path d="M530.34 512.098C529.659 512.098 529.043 511.981 528.492 511.748C527.951 511.515 527.521 511.179 527.204 510.74C526.887 510.301 526.723 509.783 526.714 509.186H528.814C528.842 509.587 528.982 509.905 529.234 510.138C529.495 510.371 529.85 510.488 530.298 510.488C530.755 510.488 531.115 510.381 531.376 510.166C531.637 509.942 531.768 509.653 531.768 509.298C531.768 509.009 531.679 508.771 531.502 508.584C531.325 508.397 531.101 508.253 530.83 508.15C530.569 508.038 530.205 507.917 529.738 507.786C529.103 507.599 528.585 507.417 528.184 507.24C527.792 507.053 527.451 506.778 527.162 506.414C526.882 506.041 526.742 505.546 526.742 504.93C526.742 504.351 526.887 503.847 527.176 503.418C527.465 502.989 527.871 502.662 528.394 502.438C528.917 502.205 529.514 502.088 530.186 502.088C531.194 502.088 532.011 502.335 532.636 502.83C533.271 503.315 533.621 503.997 533.686 504.874H531.53C531.511 504.538 531.367 504.263 531.096 504.048C530.835 503.824 530.485 503.712 530.046 503.712C529.663 503.712 529.355 503.81 529.122 504.006C528.898 504.202 528.786 504.487 528.786 504.86C528.786 505.121 528.87 505.341 529.038 505.518C529.215 505.686 529.43 505.826 529.682 505.938C529.943 506.041 530.307 506.162 530.774 506.302C531.409 506.489 531.927 506.675 532.328 506.862C532.729 507.049 533.075 507.329 533.364 507.702C533.653 508.075 533.798 508.565 533.798 509.172C533.798 509.695 533.663 510.18 533.392 510.628C533.121 511.076 532.725 511.435 532.202 511.706C531.679 511.967 531.059 512.098 530.34 512.098ZM539.865 504.132C540.453 504.132 540.976 504.263 541.433 504.524C541.891 504.776 542.245 505.154 542.497 505.658C542.759 506.153 542.889 506.75 542.889 507.45V512H540.929V507.716C540.929 507.1 540.775 506.629 540.467 506.302C540.159 505.966 539.739 505.798 539.207 505.798C538.666 505.798 538.237 505.966 537.919 506.302C537.611 506.629 537.457 507.1 537.457 507.716V512H535.497V501.64H537.457V505.21C537.709 504.874 538.045 504.613 538.465 504.426C538.885 504.23 539.352 504.132 539.865 504.132ZM545.747 503.32C545.402 503.32 545.112 503.213 544.879 502.998C544.655 502.774 544.543 502.499 544.543 502.172C544.543 501.845 544.655 501.575 544.879 501.36C545.112 501.136 545.402 501.024 545.747 501.024C546.092 501.024 546.377 501.136 546.601 501.36C546.834 501.575 546.951 501.845 546.951 502.172C546.951 502.499 546.834 502.774 546.601 502.998C546.377 503.213 546.092 503.32 545.747 503.32ZM546.713 504.244V512H544.753V504.244H546.713ZM550.61 505.364C550.862 505.009 551.207 504.715 551.646 504.482C552.094 504.239 552.602 504.118 553.172 504.118C553.834 504.118 554.432 504.281 554.964 504.608C555.505 504.935 555.93 505.401 556.238 506.008C556.555 506.605 556.714 507.301 556.714 508.094C556.714 508.887 556.555 509.592 556.238 510.208C555.93 510.815 555.505 511.286 554.964 511.622C554.432 511.958 553.834 512.126 553.172 512.126C552.602 512.126 552.098 512.009 551.66 511.776C551.23 511.543 550.88 511.249 550.61 510.894V515.696H548.65V504.244H550.61V505.364ZM554.712 508.094C554.712 507.627 554.614 507.226 554.418 506.89C554.231 506.545 553.979 506.283 553.662 506.106C553.354 505.929 553.018 505.84 552.654 505.84C552.299 505.84 551.963 505.933 551.646 506.12C551.338 506.297 551.086 506.559 550.89 506.904C550.703 507.249 550.61 507.655 550.61 508.122C550.61 508.589 550.703 508.995 550.89 509.34C551.086 509.685 551.338 509.951 551.646 510.138C551.963 510.315 552.299 510.404 552.654 510.404C553.018 510.404 553.354 510.311 553.662 510.124C553.979 509.937 554.231 509.671 554.418 509.326C554.614 508.981 554.712 508.57 554.712 508.094ZM560.098 505.364C560.35 505.009 560.695 504.715 561.134 504.482C561.582 504.239 562.091 504.118 562.66 504.118C563.323 504.118 563.92 504.281 564.452 504.608C564.993 504.935 565.418 505.401 565.726 506.008C566.043 506.605 566.202 507.301 566.202 508.094C566.202 508.887 566.043 509.592 565.726 510.208C565.418 510.815 564.993 511.286 564.452 511.622C563.92 511.958 563.323 512.126 562.66 512.126C562.091 512.126 561.587 512.009 561.148 511.776C560.719 511.543 560.369 511.249 560.098 510.894V515.696H558.138V504.244H560.098V505.364ZM564.2 508.094C564.2 507.627 564.102 507.226 563.906 506.89C563.719 506.545 563.467 506.283 563.15 506.106C562.842 505.929 562.506 505.84 562.142 505.84C561.787 505.84 561.451 505.933 561.134 506.12C560.826 506.297 560.574 506.559 560.378 506.904C560.191 507.249 560.098 507.655 560.098 508.122C560.098 508.589 560.191 508.995 560.378 509.34C560.574 509.685 560.826 509.951 561.134 510.138C561.451 510.315 561.787 510.404 562.142 510.404C562.506 510.404 562.842 510.311 563.15 510.124C563.467 509.937 563.719 509.671 563.906 509.326C564.102 508.981 564.2 508.57 564.2 508.094ZM568.62 503.32C568.275 503.32 567.985 503.213 567.752 502.998C567.528 502.774 567.416 502.499 567.416 502.172C567.416 501.845 567.528 501.575 567.752 501.36C567.985 501.136 568.275 501.024 568.62 501.024C568.965 501.024 569.25 501.136 569.474 501.36C569.707 501.575 569.824 501.845 569.824 502.172C569.824 502.499 569.707 502.774 569.474 502.998C569.25 503.213 568.965 503.32 568.62 503.32ZM569.586 504.244V512H567.626V504.244H569.586ZM575.821 504.132C576.745 504.132 577.491 504.426 578.061 505.014C578.63 505.593 578.915 506.405 578.915 507.45V512H576.955V507.716C576.955 507.1 576.801 506.629 576.493 506.302C576.185 505.966 575.765 505.798 575.233 505.798C574.691 505.798 574.262 505.966 573.945 506.302C573.637 506.629 573.483 507.1 573.483 507.716V512H571.523V504.244H573.483V505.21C573.744 504.874 574.075 504.613 574.477 504.426C574.887 504.23 575.335 504.132 575.821 504.132ZM583.817 504.118C584.395 504.118 584.904 504.235 585.343 504.468C585.781 504.692 586.127 504.986 586.379 505.35V504.244H588.353V512.056C588.353 512.775 588.208 513.414 587.919 513.974C587.629 514.543 587.195 514.991 586.617 515.318C586.038 515.654 585.338 515.822 584.517 515.822C583.415 515.822 582.51 515.565 581.801 515.052C581.101 514.539 580.704 513.839 580.611 512.952H582.557C582.659 513.307 582.879 513.587 583.215 513.792C583.56 514.007 583.975 514.114 584.461 514.114C585.03 514.114 585.492 513.941 585.847 513.596C586.201 513.26 586.379 512.747 586.379 512.056V510.852C586.127 511.216 585.777 511.519 585.329 511.762C584.89 512.005 584.386 512.126 583.817 512.126C583.163 512.126 582.566 511.958 582.025 511.622C581.483 511.286 581.054 510.815 580.736 510.208C580.428 509.592 580.274 508.887 580.274 508.094C580.274 507.31 580.428 506.615 580.736 506.008C581.054 505.401 581.479 504.935 582.011 504.608C582.552 504.281 583.154 504.118 583.817 504.118ZM586.379 508.122C586.379 507.646 586.285 507.24 586.099 506.904C585.912 506.559 585.66 506.297 585.343 506.12C585.025 505.933 584.685 505.84 584.321 505.84C583.957 505.84 583.621 505.929 583.312 506.106C583.005 506.283 582.753 506.545 582.557 506.89C582.37 507.226 582.277 507.627 582.277 508.094C582.277 508.561 582.37 508.971 582.557 509.326C582.753 509.671 583.005 509.937 583.312 510.124C583.63 510.311 583.966 510.404 584.321 510.404C584.685 510.404 585.025 510.315 585.343 510.138C585.66 509.951 585.912 509.69 586.099 509.354C586.285 509.009 586.379 508.598 586.379 508.122Z" fill="#06183D"/>
<circle cx="545" cy="468" r="19" fill="#C8DCFF"/>
<rect x="547" y="457" width="22" height="22" rx="2" fill="#FC7859"/>
<path d="M547 459C547 457.895 547.895 457 549 457H558V479H549C547.895 479 547 478.105 547 477V459Z" fill="#FA8D74"/>
<path d="M551 457H554V468L552.5 467.312L551 468V457Z" fill="#FEFEFF"/>
<path d="M562 457H565V468L563.5 467.312L562 468V457Z" fill="#FCB91D"/>
<rect x="534" y="462" width="9" height="2" rx="1" fill="white"/>
<rect x="531" y="467" width="12" height="2" rx="1" fill="white"/>
<rect x="537" y="472" width="6" height="2" rx="1" fill="white"/>
<rect x="526" y="433" width="86" height="6" rx="3" fill="#C8DCFF"/>
<rect x="526" y="417" width="116" height="6" rx="3" fill="#FA8D74"/>
<g filter="url(#filter1_d_2_270)">
<rect x="423" y="88" width="254" height="92" rx="11" fill="white"/>
</g>
<circle r="32" transform="matrix(-1 0 0 1 473 134)" fill="#FA8D74"/>
<mask id="mask1_2_270" style="mask-type:alpha" maskUnits="userSpaceOnUse" x="441" y="102" width="65" height="64">
<circle r="32" transform="matrix(-1 0 0 1 473 134)" fill="#9E4364"/>
</mask>
<g mask="url(#mask1_2_270)">
<path d="M488.462 109.948C497.531 115.529 492.397 125.907 490.206 131.749C479.742 159.654 486.719 161.398 491.951 168.374C497.183 175.35 501.543 190.175 476.254 198.895C450.965 207.616 426.548 181.455 438.757 168.374C450.965 155.293 443.117 145.701 450.965 127.388C458.813 109.076 477.126 102.971 488.462 109.948Z" fill="#02186B"/>
<path d="M488.462 109.947C497.531 115.528 492.397 125.907 490.206 131.748C479.742 159.654 486.719 161.397 491.951 168.373C497.183 175.35 501.543 190.174 476.254 198.895C450.965 207.615 426.548 181.454 438.756 168.373C451.343 148.467 468.043 147.716 468.043 143.354C448.916 134.631 471.995 116.583 485.926 108.649C486.803 109.015 487.65 109.447 488.462 109.947Z" fill="#03013D"/>
<path d="M478.869 148.316L477.997 156.164L469.278 154.42C469.568 151.513 470.15 144.828 470.15 141.34C463.173 139.596 463.173 134.363 469.278 132.619C469.278 127.387 484.102 123.027 485.846 116.051C491.078 120.411 493.694 135.235 489.334 143.956C485.846 150.932 480.904 149.769 478.869 148.316Z" fill="url(#paint0_linear_2_270)"/>
<path d="M469.277 150.932C471.37 152.328 477.707 153.839 480.613 154.421C479.357 161.962 481.723 165.88 484.448 171.397C475.554 173.095 456.424 173.484 451.054 161.452C460.453 154.485 467.059 160.544 469.277 150.932Z" fill="#0F6AFF"/>
<path d="M480.33 159.929C474.458 163.418 467.365 159.296 464.553 156.799C463.29 157.175 461.83 157.335 460.191 157.627C463.919 161.582 473.223 167.985 480.613 161.957C480.484 161.306 480.388 160.633 480.33 159.929Z" fill="#D5B14C"/>
</g>
<path d="M534.89 147.45H531.85L531.29 149H530.33L532.85 142.07H533.9L536.41 149H535.45L534.89 147.45ZM534.63 146.71L533.37 143.19L532.11 146.71H534.63ZM538.418 144.41C538.578 144.097 538.805 143.853 539.098 143.68C539.398 143.507 539.762 143.42 540.188 143.42V144.36H539.948C538.928 144.36 538.418 144.913 538.418 146.02V149H537.508V143.52H538.418V144.41ZM542.149 144.41C542.309 144.097 542.535 143.853 542.829 143.68C543.129 143.507 543.492 143.42 543.919 143.42V144.36H543.679C542.659 144.36 542.149 144.913 542.149 146.02V149H541.239V143.52H542.149V144.41ZM545.439 142.63C545.266 142.63 545.119 142.57 544.999 142.45C544.879 142.33 544.819 142.183 544.819 142.01C544.819 141.837 544.879 141.69 544.999 141.57C545.119 141.45 545.266 141.39 545.439 141.39C545.606 141.39 545.746 141.45 545.859 141.57C545.979 141.69 546.039 141.837 546.039 142.01C546.039 142.183 545.979 142.33 545.859 142.45C545.746 142.57 545.606 142.63 545.439 142.63ZM545.879 143.52V149H544.969V143.52H545.879ZM549.47 148.16L551.17 143.52H552.14L549.99 149H548.93L546.78 143.52H547.76L549.47 148.16ZM553.506 142.63C553.332 142.63 553.186 142.57 553.066 142.45C552.946 142.33 552.886 142.183 552.886 142.01C552.886 141.837 552.946 141.69 553.066 141.57C553.186 141.45 553.332 141.39 553.506 141.39C553.672 141.39 553.812 141.45 553.926 141.57C554.046 141.69 554.106 141.837 554.106 142.01C554.106 142.183 554.046 142.33 553.926 142.45C553.812 142.57 553.672 142.63 553.506 142.63ZM553.946 143.52V149H553.036V143.52H553.946ZM558.167 143.42C558.833 143.42 559.373 143.623 559.787 144.03C560.2 144.43 560.407 145.01 560.407 145.77V149H559.507V145.9C559.507 145.353 559.37 144.937 559.097 144.65C558.823 144.357 558.45 144.21 557.977 144.21C557.497 144.21 557.113 144.36 556.827 144.66C556.547 144.96 556.407 145.397 556.407 145.97V149H555.497V143.52H556.407V144.3C556.587 144.02 556.83 143.803 557.137 143.65C557.45 143.497 557.793 143.42 558.167 143.42ZM564.153 143.43C564.626 143.43 565.04 143.533 565.393 143.74C565.753 143.947 566.02 144.207 566.193 144.52V143.52H567.113V149.12C567.113 149.62 567.006 150.063 566.793 150.45C566.58 150.843 566.273 151.15 565.873 151.37C565.48 151.59 565.02 151.7 564.493 151.7C563.773 151.7 563.173 151.53 562.693 151.19C562.213 150.85 561.93 150.387 561.843 149.8H562.743C562.843 150.133 563.05 150.4 563.363 150.6C563.676 150.807 564.053 150.91 564.493 150.91C564.993 150.91 565.4 150.753 565.713 150.44C566.033 150.127 566.193 149.687 566.193 149.12V147.97C566.013 148.29 565.746 148.557 565.393 148.77C565.04 148.983 564.626 149.09 564.153 149.09C563.666 149.09 563.223 148.97 562.823 148.73C562.43 148.49 562.12 148.153 561.893 147.72C561.666 147.287 561.553 146.793 561.553 146.24C561.553 145.68 561.666 145.19 561.893 144.77C562.12 144.343 562.43 144.013 562.823 143.78C563.223 143.547 563.666 143.43 564.153 143.43ZM566.193 146.25C566.193 145.837 566.11 145.477 565.943 145.17C565.776 144.863 565.55 144.63 565.263 144.47C564.983 144.303 564.673 144.22 564.333 144.22C563.993 144.22 563.683 144.3 563.403 144.46C563.123 144.62 562.9 144.853 562.733 145.16C562.566 145.467 562.483 145.827 562.483 146.24C562.483 146.66 562.566 147.027 562.733 147.34C562.9 147.647 563.123 147.883 563.403 148.05C563.683 148.21 563.993 148.29 564.333 148.29C564.673 148.29 564.983 148.21 565.263 148.05C565.55 147.883 565.776 147.647 565.943 147.34C566.11 147.027 566.193 146.663 566.193 146.25ZM573.527 149.07C573.067 149.07 572.654 148.99 572.287 148.83C571.927 148.663 571.644 148.437 571.437 148.15C571.23 147.857 571.124 147.52 571.117 147.14H572.087C572.12 147.467 572.254 147.743 572.487 147.97C572.727 148.19 573.074 148.3 573.527 148.3C573.96 148.3 574.3 148.193 574.547 147.98C574.8 147.76 574.927 147.48 574.927 147.14C574.927 146.873 574.854 146.657 574.707 146.49C574.56 146.323 574.377 146.197 574.157 146.11C573.937 146.023 573.64 145.93 573.267 145.83C572.807 145.71 572.437 145.59 572.157 145.47C571.884 145.35 571.647 145.163 571.447 144.91C571.254 144.65 571.157 144.303 571.157 143.87C571.157 143.49 571.254 143.153 571.447 142.86C571.64 142.567 571.91 142.34 572.257 142.18C572.61 142.02 573.014 141.94 573.467 141.94C574.12 141.94 574.654 142.103 575.067 142.43C575.487 142.757 575.724 143.19 575.777 143.73H574.777C574.744 143.463 574.604 143.23 574.357 143.03C574.11 142.823 573.784 142.72 573.377 142.72C572.997 142.72 572.687 142.82 572.447 143.02C572.207 143.213 572.087 143.487 572.087 143.84C572.087 144.093 572.157 144.3 572.297 144.46C572.444 144.62 572.62 144.743 572.827 144.83C573.04 144.91 573.337 145.003 573.717 145.11C574.177 145.237 574.547 145.363 574.827 145.49C575.107 145.61 575.347 145.8 575.547 146.06C575.747 146.313 575.847 146.66 575.847 147.1C575.847 147.44 575.757 147.76 575.577 148.06C575.397 148.36 575.13 148.603 574.777 148.79C574.424 148.977 574.007 149.07 573.527 149.07ZM579.576 149.09C579.063 149.09 578.596 148.973 578.176 148.74C577.763 148.507 577.436 148.177 577.196 147.75C576.963 147.317 576.846 146.817 576.846 146.25C576.846 145.69 576.966 145.197 577.206 144.77C577.453 144.337 577.786 144.007 578.206 143.78C578.626 143.547 579.096 143.43 579.616 143.43C580.136 143.43 580.606 143.547 581.026 143.78C581.446 144.007 581.776 144.333 582.016 144.76C582.263 145.187 582.386 145.683 582.386 146.25C582.386 146.817 582.259 147.317 582.006 147.75C581.759 148.177 581.423 148.507 580.996 148.74C580.569 148.973 580.096 149.09 579.576 149.09ZM579.576 148.29C579.903 148.29 580.209 148.213 580.496 148.06C580.783 147.907 581.013 147.677 581.186 147.37C581.366 147.063 581.456 146.69 581.456 146.25C581.456 145.81 581.369 145.437 581.196 145.13C581.023 144.823 580.796 144.597 580.516 144.45C580.236 144.297 579.933 144.22 579.606 144.22C579.273 144.22 578.966 144.297 578.686 144.45C578.413 144.597 578.193 144.823 578.026 145.13C577.859 145.437 577.776 145.81 577.776 146.25C577.776 146.697 577.856 147.073 578.016 147.38C578.183 147.687 578.403 147.917 578.676 148.07C578.949 148.217 579.249 148.29 579.576 148.29ZM585.973 149.09C585.459 149.09 584.993 148.973 584.573 148.74C584.159 148.507 583.833 148.177 583.593 147.75C583.359 147.317 583.243 146.817 583.243 146.25C583.243 145.69 583.363 145.197 583.603 144.77C583.849 144.337 584.183 144.007 584.603 143.78C585.023 143.547 585.493 143.43 586.013 143.43C586.533 143.43 587.003 143.547 587.423 143.78C587.843 144.007 588.173 144.333 588.413 144.76C588.659 145.187 588.783 145.683 588.783 146.25C588.783 146.817 588.656 147.317 588.403 147.75C588.156 148.177 587.819 148.507 587.393 148.74C586.966 148.973 586.493 149.09 585.973 149.09ZM585.973 148.29C586.299 148.29 586.606 148.213 586.893 148.06C587.179 147.907 587.409 147.677 587.583 147.37C587.763 147.063 587.853 146.69 587.853 146.25C587.853 145.81 587.766 145.437 587.593 145.13C587.419 144.823 587.193 144.597 586.913 144.45C586.633 144.297 586.329 144.22 586.003 144.22C585.669 144.22 585.363 144.297 585.083 144.45C584.809 144.597 584.589 144.823 584.423 145.13C584.256 145.437 584.173 145.81 584.173 146.25C584.173 146.697 584.253 147.073 584.413 147.38C584.579 147.687 584.799 147.917 585.073 148.07C585.346 148.217 585.646 148.29 585.973 148.29ZM592.649 143.42C593.316 143.42 593.856 143.623 594.269 144.03C594.682 144.43 594.889 145.01 594.889 145.77V149H593.989V145.9C593.989 145.353 593.852 144.937 593.579 144.65C593.306 144.357 592.932 144.21 592.459 144.21C591.979 144.21 591.596 144.36 591.309 144.66C591.029 144.96 590.889 145.397 590.889 145.97V149H589.979V143.52H590.889V144.3C591.069 144.02 591.312 143.803 591.619 143.65C591.932 143.497 592.276 143.42 592.649 143.42Z" fill="#FA8D74"/>
<circle cx="523" cy="145" r="2" fill="#D64F5C"/>
<path d="M523.926 128.446H527.146V130H521.966V120.228H523.926V128.446ZM527.888 126.094C527.888 125.31 528.042 124.615 528.35 124.008C528.667 123.401 529.092 122.935 529.624 122.608C530.165 122.281 530.767 122.118 531.43 122.118C532.008 122.118 532.512 122.235 532.942 122.468C533.38 122.701 533.73 122.995 533.992 123.35V122.244H535.966V130H533.992V128.866C533.74 129.23 533.39 129.533 532.942 129.776C532.503 130.009 531.994 130.126 531.416 130.126C530.762 130.126 530.165 129.958 529.624 129.622C529.092 129.286 528.667 128.815 528.35 128.208C528.042 127.592 527.888 126.887 527.888 126.094ZM533.992 126.122C533.992 125.646 533.898 125.24 533.712 124.904C533.525 124.559 533.273 124.297 532.956 124.12C532.638 123.933 532.298 123.84 531.934 123.84C531.57 123.84 531.234 123.929 530.926 124.106C530.618 124.283 530.366 124.545 530.17 124.89C529.983 125.226 529.89 125.627 529.89 126.094C529.89 126.561 529.983 126.971 530.17 127.326C530.366 127.671 530.618 127.937 530.926 128.124C531.243 128.311 531.579 128.404 531.934 128.404C532.298 128.404 532.638 128.315 532.956 128.138C533.273 127.951 533.525 127.69 533.712 127.354C533.898 127.009 533.992 126.598 533.992 126.122ZM542.178 122.132C543.102 122.132 543.849 122.426 544.418 123.014C544.987 123.593 545.272 124.405 545.272 125.45V130H543.312V125.716C543.312 125.1 543.158 124.629 542.85 124.302C542.542 123.966 542.122 123.798 541.59 123.798C541.049 123.798 540.619 123.966 540.302 124.302C539.994 124.629 539.84 125.1 539.84 125.716V130H537.88V122.244H539.84V123.21C540.101 122.874 540.433 122.613 540.834 122.426C541.245 122.23 541.693 122.132 542.178 122.132ZM546.632 126.094C546.632 125.31 546.786 124.615 547.094 124.008C547.411 123.401 547.836 122.935 548.368 122.608C548.909 122.281 549.511 122.118 550.174 122.118C550.753 122.118 551.257 122.235 551.686 122.468C552.125 122.701 552.475 122.995 552.736 123.35V122.244H554.71V130H552.736V128.866C552.484 129.23 552.134 129.533 551.686 129.776C551.247 130.009 550.739 130.126 550.16 130.126C549.507 130.126 548.909 129.958 548.368 129.622C547.836 129.286 547.411 128.815 547.094 128.208C546.786 127.592 546.632 126.887 546.632 126.094ZM552.736 126.122C552.736 125.646 552.643 125.24 552.456 124.904C552.269 124.559 552.017 124.297 551.7 124.12C551.383 123.933 551.042 123.84 550.678 123.84C550.314 123.84 549.978 123.929 549.67 124.106C549.362 124.283 549.11 124.545 548.914 124.89C548.727 125.226 548.634 125.627 548.634 126.094C548.634 126.561 548.727 126.971 548.914 127.326C549.11 127.671 549.362 127.937 549.67 128.124C549.987 128.311 550.323 128.404 550.678 128.404C551.042 128.404 551.383 128.315 551.7 128.138C552.017 127.951 552.269 127.69 552.456 127.354C552.643 127.009 552.736 126.598 552.736 126.122ZM565 130L562.844 126.192H561.92V130H559.96V120.228H563.628C564.384 120.228 565.028 120.363 565.56 120.634C566.092 120.895 566.489 121.255 566.75 121.712C567.021 122.16 567.156 122.664 567.156 123.224C567.156 123.868 566.969 124.451 566.596 124.974C566.223 125.487 565.667 125.842 564.93 126.038L567.268 130H565ZM561.92 124.722H563.558C564.09 124.722 564.487 124.596 564.748 124.344C565.009 124.083 565.14 123.723 565.14 123.266C565.14 122.818 565.009 122.473 564.748 122.23C564.487 121.978 564.09 121.852 563.558 121.852H561.92V124.722ZM572.373 130.126C571.626 130.126 570.954 129.963 570.357 129.636C569.76 129.3 569.288 128.829 568.943 128.222C568.607 127.615 568.439 126.915 568.439 126.122C568.439 125.329 568.612 124.629 568.957 124.022C569.312 123.415 569.792 122.949 570.399 122.622C571.006 122.286 571.682 122.118 572.429 122.118C573.176 122.118 573.852 122.286 574.459 122.622C575.066 122.949 575.542 123.415 575.887 124.022C576.242 124.629 576.419 125.329 576.419 126.122C576.419 126.915 576.237 127.615 575.873 128.222C575.518 128.829 575.033 129.3 574.417 129.636C573.81 129.963 573.129 130.126 572.373 130.126ZM572.373 128.418C572.728 128.418 573.059 128.334 573.367 128.166C573.684 127.989 573.936 127.727 574.123 127.382C574.31 127.037 574.403 126.617 574.403 126.122C574.403 125.385 574.207 124.82 573.815 124.428C573.432 124.027 572.961 123.826 572.401 123.826C571.841 123.826 571.37 124.027 570.987 124.428C570.614 124.82 570.427 125.385 570.427 126.122C570.427 126.859 570.609 127.429 570.973 127.83C571.346 128.222 571.813 128.418 572.373 128.418ZM580.825 130.126C580.19 130.126 579.621 130.014 579.117 129.79C578.613 129.557 578.211 129.244 577.913 128.852C577.623 128.46 577.465 128.026 577.437 127.55H579.411C579.448 127.849 579.593 128.096 579.845 128.292C580.106 128.488 580.428 128.586 580.811 128.586C581.184 128.586 581.473 128.511 581.679 128.362C581.893 128.213 582.001 128.021 582.001 127.788C582.001 127.536 581.87 127.349 581.609 127.228C581.357 127.097 580.951 126.957 580.391 126.808C579.812 126.668 579.336 126.523 578.963 126.374C578.599 126.225 578.281 125.996 578.011 125.688C577.749 125.38 577.619 124.965 577.619 124.442C577.619 124.013 577.74 123.621 577.983 123.266C578.235 122.911 578.589 122.631 579.047 122.426C579.513 122.221 580.059 122.118 580.685 122.118C581.609 122.118 582.346 122.351 582.897 122.818C583.447 123.275 583.751 123.896 583.807 124.68H581.931C581.903 124.372 581.772 124.129 581.539 123.952C581.315 123.765 581.011 123.672 580.629 123.672C580.274 123.672 579.999 123.737 579.803 123.868C579.616 123.999 579.523 124.181 579.523 124.414C579.523 124.675 579.653 124.876 579.915 125.016C580.176 125.147 580.582 125.282 581.133 125.422C581.693 125.562 582.155 125.707 582.519 125.856C582.883 126.005 583.195 126.239 583.457 126.556C583.727 126.864 583.867 127.275 583.877 127.788C583.877 128.236 583.751 128.637 583.499 128.992C583.256 129.347 582.901 129.627 582.435 129.832C581.977 130.028 581.441 130.126 580.825 130.126ZM592.696 125.954C592.696 126.234 592.677 126.486 592.64 126.71H586.97C587.016 127.27 587.212 127.709 587.558 128.026C587.903 128.343 588.328 128.502 588.832 128.502C589.56 128.502 590.078 128.189 590.386 127.564H592.5C592.276 128.311 591.846 128.927 591.212 129.412C590.577 129.888 589.798 130.126 588.874 130.126C588.127 130.126 587.455 129.963 586.858 129.636C586.27 129.3 585.808 128.829 585.472 128.222C585.145 127.615 584.982 126.915 584.982 126.122C584.982 125.319 585.145 124.615 585.472 124.008C585.798 123.401 586.256 122.935 586.844 122.608C587.432 122.281 588.108 122.118 588.874 122.118C589.611 122.118 590.269 122.277 590.848 122.594C591.436 122.911 591.888 123.364 592.206 123.952C592.532 124.531 592.696 125.198 592.696 125.954ZM590.666 125.394C590.656 124.89 590.474 124.489 590.12 124.19C589.765 123.882 589.331 123.728 588.818 123.728C588.332 123.728 587.922 123.877 587.586 124.176C587.259 124.465 587.058 124.871 586.984 125.394H590.666Z" fill="#06183D"/>
<path d="M645.002 102C651.639 102 657.004 107.378 657.004 114.002C657.004 120.628 651.639 126.004 645.002 126.004C638.377 126.004 633 120.628 633 114.002C633 107.378 638.377 102 645.002 102ZM645.002 117.52C644.426 117.52 643.958 117.988 643.958 118.564C643.958 119.14 644.426 119.62 645.014 119.62C645.59 119.62 646.058 119.14 646.058 118.564C646.058 117.988 645.59 117.52 645.002 117.52ZM645.002 108.397C644.426 108.397 643.946 108.878 643.946 109.453V114.758C643.946 115.335 644.426 115.802 645.002 115.802C645.578 115.802 646.046 115.335 646.046 114.758V109.453C646.046 108.878 645.578 108.397 645.002 108.397Z" fill="#FA8D74"/>
<g filter="url(#filter2_d_2_270)">
<rect x="56" y="24" width="158" height="176" rx="11" fill="white"/>
</g>
<rect x="76" y="154" width="118" height="20" rx="10" fill="#F7FAFF"/>
<rect x="120" y="161" width="30" height="6" rx="3" fill="#C8DCFF"/>
<path d="M104.732 121.144C104.732 121.568 104.632 121.968 104.432 122.344C104.232 122.72 103.912 123.028 103.472 123.268C103.032 123.5 102.468 123.616 101.78 123.616H100.268V127H98.9V118.66H101.78C102.42 118.66 102.96 118.772 103.4 118.996C103.848 119.212 104.18 119.508 104.396 119.884C104.62 120.26 104.732 120.68 104.732 121.144ZM101.78 122.5C102.3 122.5 102.688 122.384 102.944 122.152C103.2 121.912 103.328 121.576 103.328 121.144C103.328 120.232 102.812 119.776 101.78 119.776H100.268V122.5H101.78ZM107.405 121.348C107.605 121.012 107.869 120.752 108.197 120.568C108.533 120.376 108.929 120.28 109.385 120.28V121.696H109.037C108.501 121.696 108.093 121.832 107.813 122.104C107.541 122.376 107.405 122.848 107.405 123.52V127H106.037V120.388H107.405V121.348ZM113.51 127.108C112.886 127.108 112.322 126.968 111.818 126.688C111.314 126.4 110.918 126 110.63 125.488C110.342 124.968 110.198 124.368 110.198 123.688C110.198 123.016 110.346 122.42 110.642 121.9C110.938 121.38 111.342 120.98 111.854 120.7C112.366 120.42 112.938 120.28 113.57 120.28C114.202 120.28 114.774 120.42 115.286 120.7C115.798 120.98 116.202 121.38 116.498 121.9C116.794 122.42 116.942 123.016 116.942 123.688C116.942 124.36 116.79 124.956 116.486 125.476C116.182 125.996 115.766 126.4 115.238 126.688C114.718 126.968 114.142 127.108 113.51 127.108ZM113.51 125.92C113.862 125.92 114.19 125.836 114.494 125.668C114.806 125.5 115.058 125.248 115.25 124.912C115.442 124.576 115.538 124.168 115.538 123.688C115.538 123.208 115.446 122.804 115.262 122.476C115.078 122.14 114.834 121.888 114.53 121.72C114.226 121.552 113.898 121.468 113.546 121.468C113.194 121.468 112.866 121.552 112.562 121.72C112.266 121.888 112.03 122.14 111.854 122.476C111.678 122.804 111.59 123.208 111.59 123.688C111.59 124.4 111.77 124.952 112.13 125.344C112.498 125.728 112.958 125.92 113.51 125.92ZM117.839 123.664C117.839 123 117.975 122.412 118.247 121.9C118.527 121.388 118.903 120.992 119.375 120.712C119.855 120.424 120.387 120.28 120.971 120.28C121.403 120.28 121.827 120.376 122.243 120.568C122.667 120.752 123.003 121 123.251 121.312V118.12H124.631V127H123.251V126.004C123.027 126.324 122.715 126.588 122.315 126.796C121.923 127.004 121.471 127.108 120.959 127.108C120.383 127.108 119.855 126.964 119.375 126.676C118.903 126.38 118.527 125.972 118.247 125.452C117.975 124.924 117.839 124.328 117.839 123.664ZM123.251 123.688C123.251 123.232 123.155 122.836 122.963 122.5C122.779 122.164 122.535 121.908 122.231 121.732C121.927 121.556 121.599 121.468 121.247 121.468C120.895 121.468 120.567 121.556 120.263 121.732C119.959 121.9 119.711 122.152 119.519 122.488C119.335 122.816 119.243 123.208 119.243 123.664C119.243 124.12 119.335 124.52 119.519 124.864C119.711 125.208 119.959 125.472 120.263 125.656C120.575 125.832 120.903 125.92 121.247 125.92C121.599 125.92 121.927 125.832 122.231 125.656C122.535 125.48 122.779 125.224 122.963 124.888C123.155 124.544 123.251 124.144 123.251 123.688ZM132.415 120.388V127H131.047V126.22C130.831 126.492 130.547 126.708 130.195 126.868C129.851 127.02 129.483 127.096 129.091 127.096C128.571 127.096 128.103 126.988 127.687 126.772C127.279 126.556 126.955 126.236 126.715 125.812C126.483 125.388 126.367 124.876 126.367 124.276V120.388H127.723V124.072C127.723 124.664 127.871 125.12 128.167 125.44C128.463 125.752 128.867 125.908 129.379 125.908C129.891 125.908 130.295 125.752 130.591 125.44C130.895 125.12 131.047 124.664 131.047 124.072V120.388H132.415ZM133.764 123.688C133.764 123.008 133.9 122.412 134.172 121.9C134.452 121.38 134.836 120.98 135.324 120.7C135.812 120.42 136.372 120.28 137.004 120.28C137.804 120.28 138.464 120.472 138.984 120.856C139.512 121.232 139.868 121.772 140.052 122.476H138.576C138.456 122.148 138.264 121.892 138 121.708C137.736 121.524 137.404 121.432 137.004 121.432C136.444 121.432 135.996 121.632 135.66 122.032C135.332 122.424 135.168 122.976 135.168 123.688C135.168 124.4 135.332 124.956 135.66 125.356C135.996 125.756 136.444 125.956 137.004 125.956C137.796 125.956 138.32 125.608 138.576 124.912H140.052C139.86 125.584 139.5 126.12 138.972 126.52C138.444 126.912 137.788 127.108 137.004 127.108C136.372 127.108 135.812 126.968 135.324 126.688C134.836 126.4 134.452 126 134.172 125.488C133.9 124.968 133.764 124.368 133.764 123.688ZM143.012 121.504V125.164C143.012 125.412 143.068 125.592 143.18 125.704C143.3 125.808 143.5 125.86 143.78 125.86H144.62V127H143.54C142.924 127 142.452 126.856 142.124 126.568C141.796 126.28 141.632 125.812 141.632 125.164V121.504H140.852V120.388H141.632V118.744H143.012V120.388H144.62V121.504H143.012ZM148.28 127.108C147.76 127.108 147.292 127.016 146.876 126.832C146.468 126.64 146.144 126.384 145.904 126.064C145.664 125.736 145.536 125.372 145.52 124.972H146.936C146.96 125.252 147.092 125.488 147.332 125.68C147.58 125.864 147.888 125.956 148.256 125.956C148.64 125.956 148.936 125.884 149.144 125.74C149.36 125.588 149.468 125.396 149.468 125.164C149.468 124.916 149.348 124.732 149.108 124.612C148.876 124.492 148.504 124.36 147.992 124.216C147.496 124.08 147.092 123.948 146.78 123.82C146.468 123.692 146.196 123.496 145.964 123.232C145.74 122.968 145.628 122.62 145.628 122.188C145.628 121.836 145.732 121.516 145.94 121.228C146.148 120.932 146.444 120.7 146.828 120.532C147.22 120.364 147.668 120.28 148.172 120.28C148.924 120.28 149.528 120.472 149.984 120.856C150.448 121.232 150.696 121.748 150.728 122.404H149.36C149.336 122.108 149.216 121.872 149 121.696C148.784 121.52 148.492 121.432 148.124 121.432C147.764 121.432 147.488 121.5 147.296 121.636C147.104 121.772 147.008 121.952 147.008 122.176C147.008 122.352 147.072 122.5 147.2 122.62C147.328 122.74 147.484 122.836 147.668 122.908C147.852 122.972 148.124 123.056 148.484 123.16C148.964 123.288 149.356 123.42 149.66 123.556C149.972 123.684 150.24 123.876 150.464 124.132C150.688 124.388 150.804 124.728 150.812 125.152C150.812 125.528 150.708 125.864 150.5 126.16C150.292 126.456 149.996 126.688 149.612 126.856C149.236 127.024 148.792 127.108 148.28 127.108Z" fill="#06183D"/>
<circle cx="83" cy="123" r="7" fill="#FA8D74"/>
<path d="M103.928 97.296H100.436L99.836 99H98.408L101.396 90.648H102.98L105.968 99H104.528L103.928 97.296ZM103.544 96.18L102.188 92.304L100.82 96.18H103.544ZM106.811 95.664C106.811 95 106.947 94.412 107.219 93.9C107.499 93.388 107.875 92.992 108.347 92.712C108.827 92.424 109.359 92.28 109.943 92.28C110.375 92.28 110.799 92.376 111.215 92.568C111.639 92.752 111.975 93 112.223 93.312V90.12H113.603V99H112.223V98.004C111.999 98.324 111.687 98.588 111.287 98.796C110.895 99.004 110.443 99.108 109.931 99.108C109.355 99.108 108.827 98.964 108.347 98.676C107.875 98.38 107.499 97.972 107.219 97.452C106.947 96.924 106.811 96.328 106.811 95.664ZM112.223 95.688C112.223 95.232 112.127 94.836 111.935 94.5C111.751 94.164 111.507 93.908 111.203 93.732C110.899 93.556 110.571 93.468 110.219 93.468C109.867 93.468 109.539 93.556 109.235 93.732C108.931 93.9 108.683 94.152 108.491 94.488C108.307 94.816 108.215 95.208 108.215 95.664C108.215 96.12 108.307 96.52 108.491 96.864C108.683 97.208 108.931 97.472 109.235 97.656C109.547 97.832 109.875 97.92 110.219 97.92C110.571 97.92 110.899 97.832 111.203 97.656C111.507 97.48 111.751 97.224 111.935 96.888C112.127 96.544 112.223 96.144 112.223 95.688ZM114.944 95.664C114.944 95 115.08 94.412 115.352 93.9C115.632 93.388 116.008 92.992 116.48 92.712C116.96 92.424 117.492 92.28 118.076 92.28C118.508 92.28 118.932 92.376 119.348 92.568C119.772 92.752 120.108 93 120.356 93.312V90.12H121.736V99H120.356V98.004C120.132 98.324 119.82 98.588 119.42 98.796C119.028 99.004 118.576 99.108 118.064 99.108C117.488 99.108 116.96 98.964 116.48 98.676C116.008 98.38 115.632 97.972 115.352 97.452C115.08 96.924 114.944 96.328 114.944 95.664ZM120.356 95.688C120.356 95.232 120.26 94.836 120.068 94.5C119.884 94.164 119.64 93.908 119.336 93.732C119.032 93.556 118.704 93.468 118.352 93.468C118 93.468 117.672 93.556 117.368 93.732C117.064 93.9 116.816 94.152 116.624 94.488C116.44 94.816 116.348 95.208 116.348 95.664C116.348 96.12 116.44 96.52 116.624 96.864C116.816 97.208 117.064 97.472 117.368 97.656C117.68 97.832 118.008 97.92 118.352 97.92C118.704 97.92 119.032 97.832 119.336 97.656C119.64 97.48 119.884 97.224 120.068 96.888C120.26 96.544 120.356 96.144 120.356 95.688ZM124.901 93.348C125.101 93.012 125.365 92.752 125.693 92.568C126.029 92.376 126.425 92.28 126.881 92.28V93.696H126.533C125.997 93.696 125.589 93.832 125.309 94.104C125.037 94.376 124.901 94.848 124.901 95.52V99H123.533V92.388H124.901V93.348ZM134.198 95.532C134.198 95.78 134.182 96.004 134.15 96.204H129.098C129.138 96.732 129.334 97.156 129.686 97.476C130.038 97.796 130.47 97.956 130.982 97.956C131.718 97.956 132.238 97.648 132.542 97.032H134.018C133.818 97.64 133.454 98.14 132.926 98.532C132.406 98.916 131.758 99.108 130.982 99.108C130.35 99.108 129.782 98.968 129.278 98.688C128.782 98.4 128.39 98 128.102 97.488C127.822 96.968 127.682 96.368 127.682 95.688C127.682 95.008 127.818 94.412 128.09 93.9C128.37 93.38 128.758 92.98 129.254 92.7C129.758 92.42 130.334 92.28 130.982 92.28C131.606 92.28 132.162 92.416 132.65 92.688C133.138 92.96 133.518 93.344 133.79 93.84C134.062 94.328 134.198 94.892 134.198 95.532ZM132.77 95.1C132.762 94.596 132.582 94.192 132.23 93.888C131.878 93.584 131.442 93.432 130.922 93.432C130.45 93.432 130.046 93.584 129.71 93.888C129.374 94.184 129.174 94.588 129.11 95.1H132.77ZM137.945 99.108C137.425 99.108 136.957 99.016 136.541 98.832C136.133 98.64 135.809 98.384 135.569 98.064C135.329 97.736 135.201 97.372 135.185 96.972H136.601C136.625 97.252 136.757 97.488 136.997 97.68C137.245 97.864 137.553 97.956 137.921 97.956C138.305 97.956 138.601 97.884 138.809 97.74C139.025 97.588 139.133 97.396 139.133 97.164C139.133 96.916 139.013 96.732 138.773 96.612C138.541 96.492 138.169 96.36 137.657 96.216C137.161 96.08 136.757 95.948 136.445 95.82C136.133 95.692 135.861 95.496 135.629 95.232C135.405 94.968 135.293 94.62 135.293 94.188C135.293 93.836 135.397 93.516 135.605 93.228C135.813 92.932 136.109 92.7 136.493 92.532C136.885 92.364 137.333 92.28 137.837 92.28C138.589 92.28 139.193 92.472 139.649 92.856C140.113 93.232 140.361 93.748 140.393 94.404H139.025C139.001 94.108 138.881 93.872 138.665 93.696C138.449 93.52 138.157 93.432 137.789 93.432C137.429 93.432 137.153 93.5 136.961 93.636C136.769 93.772 136.673 93.952 136.673 94.176C136.673 94.352 136.737 94.5 136.865 94.62C136.993 94.74 137.149 94.836 137.333 94.908C137.517 94.972 137.789 95.056 138.149 95.16C138.629 95.288 139.021 95.42 139.325 95.556C139.637 95.684 139.905 95.876 140.129 96.132C140.353 96.388 140.469 96.728 140.477 97.152C140.477 97.528 140.373 97.864 140.165 98.16C139.957 98.456 139.661 98.688 139.277 98.856C138.901 99.024 138.457 99.108 137.945 99.108ZM144.355 99.108C143.835 99.108 143.367 99.016 142.951 98.832C142.543 98.64 142.219 98.384 141.979 98.064C141.739 97.736 141.611 97.372 141.595 96.972H143.011C143.035 97.252 143.167 97.488 143.407 97.68C143.655 97.864 143.963 97.956 144.331 97.956C144.715 97.956 145.011 97.884 145.219 97.74C145.435 97.588 145.543 97.396 145.543 97.164C145.543 96.916 145.423 96.732 145.183 96.612C144.951 96.492 144.579 96.36 144.067 96.216C143.571 96.08 143.167 95.948 142.855 95.82C142.543 95.692 142.271 95.496 142.039 95.232C141.815 94.968 141.703 94.62 141.703 94.188C141.703 93.836 141.807 93.516 142.015 93.228C142.223 92.932 142.519 92.7 142.903 92.532C143.295 92.364 143.743 92.28 144.247 92.28C144.999 92.28 145.603 92.472 146.059 92.856C146.523 93.232 146.771 93.748 146.803 94.404H145.435C145.411 94.108 145.291 93.872 145.075 93.696C144.859 93.52 144.567 93.432 144.199 93.432C143.839 93.432 143.563 93.5 143.371 93.636C143.179 93.772 143.083 93.952 143.083 94.176C143.083 94.352 143.147 94.5 143.275 94.62C143.403 94.74 143.559 94.836 143.743 94.908C143.927 94.972 144.199 95.056 144.559 95.16C145.039 95.288 145.431 95.42 145.735 95.556C146.047 95.684 146.315 95.876 146.539 96.132C146.763 96.388 146.879 96.728 146.887 97.152C146.887 97.528 146.783 97.864 146.575 98.16C146.367 98.456 146.071 98.688 145.687 98.856C145.311 99.024 144.867 99.108 144.355 99.108Z" fill="#06183D"/>
<circle cx="83" cy="95" r="7" fill="#0F6AFF"/>
<rect x="76" y="66" width="64" height="6" rx="3" fill="#C8DCFF"/>
<rect x="76" y="50" width="106" height="6" rx="3" fill="#FA8D74"/>
<defs>
<filter id="filter0_d_2_270" x="448" y="379" width="271" height="260" filterUnits="userSpaceOnUse" color-interpolation-filters="sRGB">
<feFlood flood-opacity="0" result="BackgroundImageFix"/>
<feColorMatrix in="SourceAlpha" type="matrix" values="0 0 0 0 0 0 0 0 0 0 0 0 0 0 0 0 0 0 127 0" result="hardAlpha"/>
<feOffset dx="-8" dy="32"/>
<feGaussianBlur stdDeviation="24"/>
<feColorMatrix type="matrix" values="0 0 0 0 0.979167 0 0 0 0 0.84628 0 0 0 0 0.824132 0 0 0 0.6 0"/>
<feBlend mode="normal" in2="BackgroundImageFix" result="effect1_dropShadow_2_270"/>
<feBlend mode="normal" in="SourceGraphic" in2="effect1_dropShadow_2_270" result="shape"/>
</filter>
<filter id="filter1_d_2_270" x="367" y="72" width="350" height="188" filterUnits="userSpaceOnUse" color-interpolation-filters="sRGB">
<feFlood flood-opacity="0" result="BackgroundImageFix"/>
<feColorMatrix in="SourceAlpha" type="matrix" values="0 0 0 0 0 0 0 0 0 0 0 0 0 0 0 0 0 0 127 0" result="hardAlpha"/>
<feOffset dx="-8" dy="32"/>
<feGaussianBlur stdDeviation="24"/>
<feColorMatrix type="matrix" values="0 0 0 0 0.979167 0 0 0 0 0.84628 0 0 0 0 0.824132 0 0 0 0.6 0"/>
<feBlend mode="normal" in2="BackgroundImageFix" result="effect1_dropShadow_2_270"/>
<feBlend mode="normal" in="SourceGraphic" in2="effect1_dropShadow_2_270" result="shape"/>
</filter>
<filter id="filter2_d_2_270" x="0" y="8" width="254" height="272" filterUnits="userSpaceOnUse" color-interpolation-filters="sRGB">
<feFlood flood-opacity="0" result="BackgroundImageFix"/>
<feColorMatrix in="SourceAlpha" type="matrix" values="0 0 0 0 0 0 0 0 0 0 0 0 0 0 0 0 0 0 127 0" result="hardAlpha"/>
<feOffset dx="-8" dy="32"/>
<feGaussianBlur stdDeviation="24"/>
<feColorMatrix type="matrix" values="0 0 0 0 0.979167 0 0 0 0 0.84628 0 0 0 0 0.824132 0 0 0 0.6 0"/>
<feBlend mode="normal" in2="BackgroundImageFix" result="effect1_dropShadow_2_270"/>
<feBlend mode="normal" in="SourceGraphic" in2="effect1_dropShadow_2_270" result="shape"/>
</filter>
<linearGradient id="paint0_linear_2_270" x1="494.567" y1="122.155" x2="472.789" y2="158.281" gradientUnits="userSpaceOnUse">
<stop stop-color="#FEDCCE"/>
<stop offset="0.514652" stop-color="#FEDCCE"/>
<stop offset="0.781279" stop-color="#E38770"/>
</linearGradient>
</defs>
</svg>
