<svg width="570" height="570" viewBox="0 0 570 570" fill="none" xmlns="http://www.w3.org/2000/svg">
<circle cx="285" cy="285" r="285" fill="#FEEDE9"/>
<path d="M352.443 471.584V333.688L230.713 265.69L352.443 471.584Z" fill="#FB9D0C"/>
<path d="M352.442 471.584V333.687L539.792 226.223V365.071L352.442 471.584Z" fill="#FCB91D"/>
<path d="M469.417 405.082V266.591L438.51 284.32V422.654L469.417 405.082Z" fill="#D6D6D6"/>
<path d="M539.793 226.223L352.443 333.688L167.946 230.503L341.982 104.969L539.793 226.223Z" fill="#FFD5A5"/>
<path d="M539.792 226.224L352.443 333.688L231.664 266.139L352.443 324.654L526.003 225.273L394.287 137.032L539.792 226.224Z" fill="#FFEFDD"/>
<path d="M254.964 167.736L438.506 284.32L469.417 267.116L285.396 145.784L254.964 167.736Z" fill="#E6E1E4"/>
<path d="M352.442 471.584L539.792 365.071V364.12L352.442 469.682V471.584Z" fill="#9E7043"/>
<path d="M477.977 225.272L349.59 299.451V166.309L477.977 92.1301V225.272Z" fill="#FCB91D"/>
<path d="M477.977 225.271L349.59 299.45L477.977 221.468V225.271Z" fill="#9E7043"/>
<path d="M349.59 166.309L477.977 92.1301L349.59 17L221.203 92.1301L349.59 166.309Z" fill="#FFD5A5"/>
<path d="M295.857 135.263L426.146 61.7988L422.342 59.5728L291.157 132.547L295.857 135.263Z" fill="#B8875D"/>
<path d="M349.59 166.309L477.977 92.1303L367.184 27.2958L468.467 92.1303L349.59 160.128L235.469 100.372L349.59 166.309Z" fill="#FFEFDD"/>
<path d="M349.59 299.451V166.309L221.203 92.1301V226.223L349.59 299.451Z" fill="#FB9D0C"/>
<path d="M293.48 133.89V267.447L273.509 256.056V122.351L293.48 133.89Z" fill="#B3A4AD"/>
<path d="M221.203 226.223L292.066 266.641L224.056 224.321L221.203 156.323V226.223Z" fill="#B7740C"/>
<path d="M409.028 131.967V265.109L429.475 253.295V120.153L409.028 131.967Z" fill="#D6D6D6"/>
<path d="M402.407 47.908L424.537 60.8577C424.419 61.0046 402.219 73.3922 374.643 88.7468C368.001 92.4453 361.047 96.316 354.014 100.229C332.291 112.317 309.819 124.81 293.48 133.89L273.509 122.351L332.902 88.0496L353.08 76.3961L402.407 47.908Z" fill="#F1F1F1"/>
<path d="M280.166 57.626L300.023 46.006L353.08 76.3961L374.643 88.7468L429.475 120.153L409.028 131.967L354.014 100.229L332.902 88.0496L280.166 57.626Z" fill="#E6E1E4"/>
<path d="M353.081 76.3957L332.902 88.0492L354.014 100.229C361.047 96.3156 368.001 92.4449 374.643 88.7464L353.081 76.3957Z" fill="#F9F9F9"/>
<path d="M31 455.417V310.863L167.946 390.748V534.827L31 455.417Z" fill="#FB9D0C"/>
<path d="M167.946 390.748V534.827L306.794 453.991V310.863L167.946 390.748Z" fill="#FCB91D"/>
<path d="M167.946 390.748L306.794 310.863L170.323 227.174L31 310.863L167.946 390.748Z" fill="#FFD5A5"/>
<path d="M109.459 356.631L167.946 390.748L230.758 354.61L254.489 340.957L306.794 310.863L213.595 253.71C222.725 262.765 272.875 295.585 296.809 310.863L168.897 384.567L109.459 356.631Z" fill="#FFEFDD"/>
<path d="M97.0957 271.162L230.758 354.611L254.488 340.958L116.591 259.451L97.0957 271.162Z" fill="#E6E1E4"/>
<path d="M230.758 354.611L254.488 340.958L239.272 331.964L251.635 340.958L230.758 354.611Z" fill="#F2F1F0"/>
<path d="M31 310.863L109.459 356.631L166.044 363.644L170.323 227.174L116.591 259.45L97.0954 271.161L31 310.863Z" fill="#BA9986"/>
<path d="M232.615 497.178L230.758 354.611L254.488 340.958L256.39 483.336L232.615 497.178Z" fill="#D6D6D6"/>
<path d="M86.1592 487.402V343.04L108.032 355.799V500.086L86.1592 487.402Z" fill="#B3A4AD"/>
<path d="M108.508 500.361L31 455.417V383.14L34.3285 453.04L108.508 500.361Z" fill="#B7740C"/>
<path d="M225.482 505.345L225.007 417.377L307.745 465.878V553.372L225.482 505.345Z" fill="#FB9D0C"/>
<path d="M225.483 505.345L225.185 450.187L226.909 503.919L276.362 535.049L225.483 505.345Z" fill="#B7740C"/>
<path d="M259.243 437.446V525.776L271.606 532.81V444.694L259.243 437.446Z" fill="#B3A4AD"/>
<path d="M307.745 465.878V553.372L392.385 504.87V417.852L307.745 465.878Z" fill="#FCB91D"/>
<path d="M346.746 443.749V531.024L360.051 523.399V436.2L346.746 443.749Z" fill="#D6D6D6"/>
<path d="M307.745 465.878L392.385 417.852L308.696 368.875L225.007 417.377L307.745 465.878Z" fill="#FFD5A5"/>
<path d="M342.932 388.911L259.243 437.348L271.747 444.776L355.822 396.455L342.932 388.911Z" fill="#F1F1F1"/>
<path d="M346.737 443.754L263.57 395.028L275.592 388.061L359.926 436.271L346.737 443.754Z" fill="#E6E1E4"/>
<path d="M310.21 407.85L297.757 415.058L310.482 422.513L323.137 415.24L310.21 407.85Z" fill="#F9F9F9"/>
<path d="M307.745 465.879L392.385 417.852L342.932 388.911L387.63 417.852L307.745 462.074L242.6 427.69L307.745 465.879Z" fill="#FFEFDD"/>
<path d="M80.4532 224.32V313.715L166.044 363.168V273.773L80.4532 224.32Z" fill="#AC6315"/>
<path d="M80.4532 224.32V313.715L166.044 363.168V273.773L80.4532 224.32Z" fill="#FB9D0C"/>
<path d="M166.044 363.168V273.773L252.586 224.32V312.764L166.044 363.168Z" fill="#FCB91D"/>
<path d="M252.587 224.321L166.044 273.774L80.4531 224.321L166.995 173.917L252.587 224.321Z" fill="#FFD5A5"/>
<path d="M220.252 242.797L206.049 250.913L168.521 229.069L155.609 221.553L120.396 201.057L133.234 193.58L169.005 213.812L182.245 221.3L220.252 242.797Z" fill="#E6E1E4"/>
<path d="M202.183 194.638L215.497 202.479L182.246 221.301L168.521 229.069L128.187 251.9L115.641 244.651L155.609 221.553L169.005 213.812L202.183 194.638Z" fill="#F1F1F1"/>
<path d="M169.005 213.811L155.608 221.553L168.521 229.068L182.245 221.3L169.005 213.811Z" fill="#F9F9F9"/>
<path d="M252.587 224.321L166.044 273.774L98.998 235.036L166.044 269.494L244.503 224.321L200.756 193.799L252.587 224.321Z" fill="#FFEFDD"/>
<path d="M220.252 331.596V242.796L206.05 250.912V339.868L220.252 331.596Z" fill="#D6D6D6"/>
<path d="M115.641 244.65V334.045L128.955 341.738V252.343L115.641 244.65Z" fill="#B3A4AD"/>
<path d="M300.137 343.198V324.177L276.362 337.492V357.463L300.137 343.198Z" fill="#8DB7FF"/>
<path d="M277.312 339.393L299.186 327.03" stroke="white"/>
<path d="M286.823 339.393L299.186 332.736" stroke="white"/>
<path d="M286.823 342.246L299.186 335.589" stroke="white"/>
<path d="M286.823 345.099L299.186 338.442" stroke="white"/>
<path d="M286.823 347.952L299.186 341.295" stroke="white"/>
<path d="M278.264 352.706V343.797L283.494 340.944V349.378L278.264 352.706Z" fill="white"/>
<path d="M474.173 131.502V102.591L438.034 122.829V153.185L474.173 131.502Z" fill="#8DB7FF"/>
<path fill-rule="evenodd" clip-rule="evenodd" d="M473.083 107.557L439.835 126.349L439.124 125.09L472.372 106.298L473.083 107.557Z" fill="white"/>
<path fill-rule="evenodd" clip-rule="evenodd" d="M473.07 116.238L454.278 126.357L453.593 125.084L472.385 114.965L473.07 116.238Z" fill="white"/>
<path fill-rule="evenodd" clip-rule="evenodd" d="M473.07 120.575L454.278 130.694L453.593 129.421L472.385 119.302L473.07 120.575Z" fill="white"/>
<path fill-rule="evenodd" clip-rule="evenodd" d="M473.07 124.912L454.278 135.031L453.593 133.758L472.385 123.639L473.07 124.912Z" fill="white"/>
<path fill-rule="evenodd" clip-rule="evenodd" d="M473.07 129.247L454.278 139.366L453.593 138.093L472.385 127.975L473.07 129.247Z" fill="white"/>
<path d="M440.926 145.955V132.413L448.876 128.077V140.895L440.926 145.955Z" fill="white"/>
<path d="M534.086 282.523V241.439L482.731 270.198V313.336L534.086 282.523Z" fill="#8DB7FF"/>
<path fill-rule="evenodd" clip-rule="evenodd" d="M532.537 248.495L485.291 275.199L484.28 273.411L531.526 246.707L532.537 248.495Z" fill="white"/>
<path fill-rule="evenodd" clip-rule="evenodd" d="M532.519 260.832L505.815 275.211L504.841 273.403L531.545 259.023L532.519 260.832Z" fill="white"/>
<path fill-rule="evenodd" clip-rule="evenodd" d="M532.519 266.995L505.815 281.374L504.841 279.566L531.545 265.186L532.519 266.995Z" fill="white"/>
<path fill-rule="evenodd" clip-rule="evenodd" d="M532.519 273.158L505.815 287.537L504.841 285.729L531.545 271.349L532.519 273.158Z" fill="white"/>
<path fill-rule="evenodd" clip-rule="evenodd" d="M532.519 279.319L505.815 293.699L504.841 291.89L531.545 277.511L532.519 279.319Z" fill="white"/>
<path d="M486.84 303.061V283.818L498.138 277.655V295.871L486.84 303.061Z" fill="white"/>
<path d="M337.363 519.624V502.017L315.354 514.342V532.83L337.363 519.624Z" fill="#FA8D74"/>
<path fill-rule="evenodd" clip-rule="evenodd" d="M336.699 505.039L316.451 516.484L316.017 515.718L336.266 504.273L336.699 505.039Z" fill="white"/>
<path fill-rule="evenodd" clip-rule="evenodd" d="M336.691 510.327L325.246 516.49L324.829 515.714L336.274 509.552L336.691 510.327Z" fill="white"/>
<path fill-rule="evenodd" clip-rule="evenodd" d="M336.691 512.968L325.246 519.131L324.829 518.356L336.274 512.193L336.691 512.968Z" fill="white"/>
<path fill-rule="evenodd" clip-rule="evenodd" d="M336.691 515.61L325.246 521.772L324.829 520.997L336.274 514.834L336.691 515.61Z" fill="white"/>
<path fill-rule="evenodd" clip-rule="evenodd" d="M336.691 518.251L325.246 524.413L324.829 523.638L336.274 517.476L336.691 518.251Z" fill="white"/>
<path d="M317.114 528.425V520.178L321.956 517.537V525.344L317.114 528.425Z" fill="white"/>
<path d="M250.685 250.949V231.929L226.909 245.243V265.215L250.685 250.949Z" fill="#8DB7FF"/>
<path d="M227.86 247.145L249.734 234.781" stroke="white"/>
<path d="M237.37 247.145L249.733 240.488" stroke="white"/>
<path d="M237.37 249.998L249.733 243.341" stroke="white"/>
<path d="M237.37 252.851L249.733 246.194" stroke="white"/>
<path d="M237.37 255.704L249.733 249.047" stroke="white"/>
<path d="M228.811 260.457V251.549L234.042 248.696V257.129L228.811 260.457Z" fill="white"/>
</svg>
