<svg width="568" height="859" viewBox="0 0 568 859" fill="none" xmlns="http://www.w3.org/2000/svg">
<g filter="url(#filter0_d_2_71)">
<rect x="68" y="44" width="336" height="723" rx="33" fill="white"/>
</g>
<g filter="url(#filter1_d_2_71)">
<rect x="396" y="586" width="128" height="133" rx="16" fill="white"/>
</g>
<path d="M419.27 695.09C419.27 695.41 419.19 695.717 419.03 696.01C418.87 696.297 418.633 696.537 418.32 696.73C418.013 696.923 417.643 697.033 417.21 697.06V697.87H416.67V697.06C416.063 697.007 415.57 696.813 415.19 696.48C414.81 696.14 414.617 695.71 414.61 695.19H415.58C415.607 695.47 415.71 695.713 415.89 695.92C416.077 696.127 416.337 696.257 416.67 696.31V693.81C416.223 693.697 415.863 693.58 415.59 693.46C415.317 693.34 415.083 693.153 414.89 692.9C414.697 692.647 414.6 692.307 414.6 691.88C414.6 691.34 414.787 690.893 415.16 690.54C415.54 690.187 416.043 689.99 416.67 689.95V689.12H417.21V689.95C417.777 689.997 418.233 690.18 418.58 690.5C418.927 690.813 419.127 691.223 419.18 691.73H418.21C418.177 691.497 418.073 691.287 417.9 691.1C417.727 690.907 417.497 690.78 417.21 690.72V693.16C417.65 693.273 418.007 693.39 418.28 693.51C418.56 693.623 418.793 693.807 418.98 694.06C419.173 694.313 419.27 694.657 419.27 695.09ZM415.53 691.83C415.53 692.157 415.627 692.407 415.82 692.58C416.013 692.753 416.297 692.897 416.67 693.01V690.7C416.323 690.733 416.047 690.847 415.84 691.04C415.633 691.227 415.53 691.49 415.53 691.83ZM417.21 696.32C417.57 696.28 417.85 696.15 418.05 695.93C418.257 695.71 418.36 695.447 418.36 695.14C418.36 694.813 418.26 694.563 418.06 694.39C417.86 694.21 417.577 694.067 417.21 693.96V696.32ZM425.451 690.56H421.941V692.84C422.094 692.627 422.321 692.453 422.621 692.32C422.921 692.18 423.244 692.11 423.591 692.11C424.144 692.11 424.594 692.227 424.941 692.46C425.287 692.687 425.534 692.983 425.681 693.35C425.834 693.71 425.911 694.093 425.911 694.5C425.911 694.98 425.821 695.41 425.641 695.79C425.461 696.17 425.184 696.47 424.811 696.69C424.444 696.91 423.987 697.02 423.441 697.02C422.741 697.02 422.174 696.84 421.741 696.48C421.307 696.12 421.044 695.64 420.951 695.04H421.841C421.927 695.42 422.111 695.717 422.391 695.93C422.671 696.143 423.024 696.25 423.451 696.25C423.977 696.25 424.374 696.093 424.641 695.78C424.907 695.46 425.041 695.04 425.041 694.52C425.041 694 424.907 693.6 424.641 693.32C424.374 693.033 423.981 692.89 423.461 692.89C423.107 692.89 422.797 692.977 422.531 693.15C422.271 693.317 422.081 693.547 421.961 693.84H421.101V689.76H425.451V690.56ZM429.596 693.51C429.596 692.83 429.749 692.22 430.056 691.68C430.363 691.133 430.779 690.707 431.306 690.4C431.839 690.093 432.429 689.94 433.076 689.94C433.836 689.94 434.499 690.123 435.066 690.49C435.633 690.857 436.046 691.377 436.306 692.05H435.216C435.023 691.63 434.743 691.307 434.376 691.08C434.016 690.853 433.583 690.74 433.076 690.74C432.589 690.74 432.153 690.853 431.766 691.08C431.379 691.307 431.076 691.63 430.856 692.05C430.636 692.463 430.526 692.95 430.526 693.51C430.526 694.063 430.636 694.55 430.856 694.97C431.076 695.383 431.379 695.703 431.766 695.93C432.153 696.157 432.589 696.27 433.076 696.27C433.583 696.27 434.016 696.16 434.376 695.94C434.743 695.713 435.023 695.39 435.216 694.97H436.306C436.046 695.637 435.633 696.153 435.066 696.52C434.499 696.88 433.836 697.06 433.076 697.06C432.429 697.06 431.839 696.91 431.306 696.61C430.779 696.303 430.363 695.88 430.056 695.34C429.749 694.8 429.596 694.19 429.596 693.51ZM440.381 691.42C440.794 691.42 441.167 691.51 441.501 691.69C441.834 691.863 442.094 692.127 442.281 692.48C442.474 692.833 442.571 693.263 442.571 693.77V697H441.671V693.9C441.671 693.353 441.534 692.937 441.261 692.65C440.987 692.357 440.614 692.21 440.141 692.21C439.661 692.21 439.277 692.36 438.991 692.66C438.711 692.96 438.571 693.397 438.571 693.97V697H437.661V689.6H438.571V692.3C438.751 692.02 438.997 691.803 439.311 691.65C439.631 691.497 439.987 691.42 440.381 691.42ZM443.717 694.24C443.717 693.68 443.83 693.19 444.057 692.77C444.284 692.343 444.594 692.013 444.987 691.78C445.387 691.547 445.83 691.43 446.317 691.43C446.797 691.43 447.214 691.533 447.567 691.74C447.92 691.947 448.184 692.207 448.357 692.52V691.52H449.277V697H448.357V695.98C448.177 696.3 447.907 696.567 447.547 696.78C447.194 696.987 446.78 697.09 446.307 697.09C445.82 697.09 445.38 696.97 444.987 696.73C444.594 696.49 444.284 696.153 444.057 695.72C443.83 695.287 443.717 694.793 443.717 694.24ZM448.357 694.25C448.357 693.837 448.274 693.477 448.107 693.17C447.94 692.863 447.714 692.63 447.427 692.47C447.147 692.303 446.837 692.22 446.497 692.22C446.157 692.22 445.847 692.3 445.567 692.46C445.287 692.62 445.064 692.853 444.897 693.16C444.73 693.467 444.647 693.827 444.647 694.24C444.647 694.66 444.73 695.027 444.897 695.34C445.064 695.647 445.287 695.883 445.567 696.05C445.847 696.21 446.157 696.29 446.497 696.29C446.837 696.29 447.147 696.21 447.427 696.05C447.714 695.883 447.94 695.647 448.107 695.34C448.274 695.027 448.357 694.663 448.357 694.25ZM451.725 692.41C451.885 692.097 452.112 691.853 452.405 691.68C452.705 691.507 453.068 691.42 453.495 691.42V692.36H453.255C452.235 692.36 451.725 692.913 451.725 694.02V697H450.815V691.52H451.725V692.41ZM456.805 691.43C457.279 691.43 457.692 691.533 458.045 691.74C458.405 691.947 458.672 692.207 458.845 692.52V691.52H459.765V697.12C459.765 697.62 459.659 698.063 459.445 698.45C459.232 698.843 458.925 699.15 458.525 699.37C458.132 699.59 457.672 699.7 457.145 699.7C456.425 699.7 455.825 699.53 455.345 699.19C454.865 698.85 454.582 698.387 454.495 697.8H455.395C455.495 698.133 455.702 698.4 456.015 698.6C456.329 698.807 456.705 698.91 457.145 698.91C457.645 698.91 458.052 698.753 458.365 698.44C458.685 698.127 458.845 697.687 458.845 697.12V695.97C458.665 696.29 458.399 696.557 458.045 696.77C457.692 696.983 457.279 697.09 456.805 697.09C456.319 697.09 455.875 696.97 455.475 696.73C455.082 696.49 454.772 696.153 454.545 695.72C454.319 695.287 454.205 694.793 454.205 694.24C454.205 693.68 454.319 693.19 454.545 692.77C454.772 692.343 455.082 692.013 455.475 691.78C455.875 691.547 456.319 691.43 456.805 691.43ZM458.845 694.25C458.845 693.837 458.762 693.477 458.595 693.17C458.429 692.863 458.202 692.63 457.915 692.47C457.635 692.303 457.325 692.22 456.985 692.22C456.645 692.22 456.335 692.3 456.055 692.46C455.775 692.62 455.552 692.853 455.385 693.16C455.219 693.467 455.135 693.827 455.135 694.24C455.135 694.66 455.219 695.027 455.385 695.34C455.552 695.647 455.775 695.883 456.055 696.05C456.335 696.21 456.645 696.29 456.985 696.29C457.325 696.29 457.635 696.21 457.915 696.05C458.202 695.883 458.429 695.647 458.595 695.34C458.762 695.027 458.845 694.663 458.845 694.25ZM466.303 694.05C466.303 694.223 466.293 694.407 466.273 694.6H461.893C461.927 695.14 462.11 695.563 462.443 695.87C462.783 696.17 463.193 696.32 463.673 696.32C464.067 696.32 464.393 696.23 464.653 696.05C464.92 695.863 465.107 695.617 465.213 695.31H466.193C466.047 695.837 465.753 696.267 465.313 696.6C464.873 696.927 464.327 697.09 463.673 697.09C463.153 697.09 462.687 696.973 462.273 696.74C461.867 696.507 461.547 696.177 461.313 695.75C461.08 695.317 460.963 694.817 460.963 694.25C460.963 693.683 461.077 693.187 461.303 692.76C461.53 692.333 461.847 692.007 462.253 691.78C462.667 691.547 463.14 691.43 463.673 691.43C464.193 691.43 464.653 691.543 465.053 691.77C465.453 691.997 465.76 692.31 465.973 692.71C466.193 693.103 466.303 693.55 466.303 694.05ZM465.363 693.86C465.363 693.513 465.287 693.217 465.133 692.97C464.98 692.717 464.77 692.527 464.503 692.4C464.243 692.267 463.953 692.2 463.633 692.2C463.173 692.2 462.78 692.347 462.453 692.64C462.133 692.933 461.95 693.34 461.903 693.86H465.363Z" fill="#60646D"/>
<path d="M421.752 677H420.384L416.268 670.772V677H414.9V668.648H416.268L420.384 674.864V668.648H421.752V677ZM429.608 673.532C429.608 673.78 429.592 674.004 429.56 674.204H424.508C424.548 674.732 424.744 675.156 425.096 675.476C425.448 675.796 425.88 675.956 426.392 675.956C427.128 675.956 427.648 675.648 427.952 675.032H429.428C429.228 675.64 428.864 676.14 428.336 676.532C427.816 676.916 427.168 677.108 426.392 677.108C425.76 677.108 425.192 676.968 424.688 676.688C424.192 676.4 423.8 676 423.512 675.488C423.232 674.968 423.092 674.368 423.092 673.688C423.092 673.008 423.228 672.412 423.5 671.9C423.78 671.38 424.168 670.98 424.664 670.7C425.168 670.42 425.744 670.28 426.392 670.28C427.016 670.28 427.572 670.416 428.06 670.688C428.548 670.96 428.928 671.344 429.2 671.84C429.472 672.328 429.608 672.892 429.608 673.532ZM428.18 673.1C428.172 672.596 427.992 672.192 427.64 671.888C427.288 671.584 426.852 671.432 426.332 671.432C425.86 671.432 425.456 671.584 425.12 671.888C424.784 672.184 424.584 672.588 424.52 673.1H428.18ZM433.787 673.652L435.923 677H434.375L432.947 674.756L431.603 677H430.175L432.311 673.748L430.175 670.388H431.723L433.151 672.632L434.495 670.388H435.923L433.787 673.652ZM438.539 671.504V675.164C438.539 675.412 438.595 675.592 438.707 675.704C438.827 675.808 439.027 675.86 439.307 675.86H440.147V677H439.067C438.451 677 437.979 676.856 437.651 676.568C437.323 676.28 437.159 675.812 437.159 675.164V671.504H436.379V670.388H437.159V668.744H438.539V670.388H440.147V671.504H438.539ZM444.069 673.664C444.069 673 444.205 672.412 444.477 671.9C444.757 671.388 445.133 670.992 445.605 670.712C446.085 670.424 446.617 670.28 447.201 670.28C447.633 670.28 448.057 670.376 448.473 670.568C448.897 670.752 449.233 671 449.481 671.312V668.12H450.861V677H449.481V676.004C449.257 676.324 448.945 676.588 448.545 676.796C448.153 677.004 447.701 677.108 447.189 677.108C446.613 677.108 446.085 676.964 445.605 676.676C445.133 676.38 444.757 675.972 444.477 675.452C444.205 674.924 444.069 674.328 444.069 673.664ZM449.481 673.688C449.481 673.232 449.385 672.836 449.193 672.5C449.009 672.164 448.765 671.908 448.461 671.732C448.157 671.556 447.829 671.468 447.477 671.468C447.125 671.468 446.797 671.556 446.493 671.732C446.189 671.9 445.941 672.152 445.749 672.488C445.565 672.816 445.473 673.208 445.473 673.664C445.473 674.12 445.565 674.52 445.749 674.864C445.941 675.208 446.189 675.472 446.493 675.656C446.805 675.832 447.133 675.92 447.477 675.92C447.829 675.92 448.157 675.832 448.461 675.656C448.765 675.48 449.009 675.224 449.193 674.888C449.385 674.544 449.481 674.144 449.481 673.688ZM452.202 673.664C452.202 673 452.338 672.412 452.61 671.9C452.89 671.388 453.266 670.992 453.738 670.712C454.218 670.424 454.746 670.28 455.322 670.28C455.842 670.28 456.294 670.384 456.678 670.592C457.07 670.792 457.382 671.044 457.614 671.348V670.388H458.994V677H457.614V676.016C457.382 676.328 457.066 676.588 456.666 676.796C456.266 677.004 455.81 677.108 455.298 677.108C454.73 677.108 454.21 676.964 453.738 676.676C453.266 676.38 452.89 675.972 452.61 675.452C452.338 674.924 452.202 674.328 452.202 673.664ZM457.614 673.688C457.614 673.232 457.518 672.836 457.326 672.5C457.142 672.164 456.898 671.908 456.594 671.732C456.29 671.556 455.962 671.468 455.61 671.468C455.258 671.468 454.93 671.556 454.626 671.732C454.322 671.9 454.074 672.152 453.882 672.488C453.698 672.816 453.606 673.208 453.606 673.664C453.606 674.12 453.698 674.52 453.882 674.864C454.074 675.208 454.322 675.472 454.626 675.656C454.938 675.832 455.266 675.92 455.61 675.92C455.962 675.92 456.29 675.832 456.594 675.656C456.898 675.48 457.142 675.224 457.326 674.888C457.518 674.544 457.614 674.144 457.614 673.688ZM466.743 670.388L462.687 680.108H461.271L462.615 676.892L460.011 670.388H461.535L463.395 675.428L465.327 670.388H466.743Z" fill="#06183D"/>
<circle cx="438" cy="628" r="24" fill="#FCAA0F"/>
<path d="M438.625 623.625H446.969L443.625 618.625H438.625V623.625ZM437.375 623.625V618.625H432.375L429.031 623.625H437.375Z" fill="white"/>
<path d="M428.625 624.875V637.375H447.375V624.875H428.625ZM437.375 634.875H431.125V632.375H437.375V634.875Z" fill="white"/>
<g filter="url(#filter2_d_2_71)">
<rect x="244" y="586" width="128" height="133" rx="16" fill="white"/>
</g>
<path d="M267.27 695.09C267.27 695.41 267.19 695.717 267.03 696.01C266.87 696.297 266.633 696.537 266.32 696.73C266.013 696.923 265.643 697.033 265.21 697.06V697.87H264.67V697.06C264.063 697.007 263.57 696.813 263.19 696.48C262.81 696.14 262.617 695.71 262.61 695.19H263.58C263.607 695.47 263.71 695.713 263.89 695.92C264.077 696.127 264.337 696.257 264.67 696.31V693.81C264.223 693.697 263.863 693.58 263.59 693.46C263.317 693.34 263.083 693.153 262.89 692.9C262.697 692.647 262.6 692.307 262.6 691.88C262.6 691.34 262.787 690.893 263.16 690.54C263.54 690.187 264.043 689.99 264.67 689.95V689.12H265.21V689.95C265.777 689.997 266.233 690.18 266.58 690.5C266.927 690.813 267.127 691.223 267.18 691.73H266.21C266.177 691.497 266.073 691.287 265.9 691.1C265.727 690.907 265.497 690.78 265.21 690.72V693.16C265.65 693.273 266.007 693.39 266.28 693.51C266.56 693.623 266.793 693.807 266.98 694.06C267.173 694.313 267.27 694.657 267.27 695.09ZM263.53 691.83C263.53 692.157 263.627 692.407 263.82 692.58C264.013 692.753 264.297 692.897 264.67 693.01V690.7C264.323 690.733 264.047 690.847 263.84 691.04C263.633 691.227 263.53 691.49 263.53 691.83ZM265.21 696.32C265.57 696.28 265.85 696.15 266.05 695.93C266.257 695.71 266.36 695.447 266.36 695.14C266.36 694.813 266.26 694.563 266.06 694.39C265.86 694.21 265.577 694.067 265.21 693.96V696.32ZM273.291 690.48L270.511 697H269.591L272.411 690.57H268.551V689.79H273.291V690.48ZM276.776 693.51C276.776 692.83 276.929 692.22 277.236 691.68C277.542 691.133 277.959 690.707 278.486 690.4C279.019 690.093 279.609 689.94 280.256 689.94C281.016 689.94 281.679 690.123 282.246 690.49C282.812 690.857 283.226 691.377 283.486 692.05H282.396C282.202 691.63 281.922 691.307 281.556 691.08C281.196 690.853 280.762 690.74 280.256 690.74C279.769 690.74 279.332 690.853 278.946 691.08C278.559 691.307 278.256 691.63 278.036 692.05C277.816 692.463 277.706 692.95 277.706 693.51C277.706 694.063 277.816 694.55 278.036 694.97C278.256 695.383 278.559 695.703 278.946 695.93C279.332 696.157 279.769 696.27 280.256 696.27C280.762 696.27 281.196 696.16 281.556 695.94C281.922 695.713 282.202 695.39 282.396 694.97H283.486C283.226 695.637 282.812 696.153 282.246 696.52C281.679 696.88 281.016 697.06 280.256 697.06C279.609 697.06 279.019 696.91 278.486 696.61C277.959 696.303 277.542 695.88 277.236 695.34C276.929 694.8 276.776 694.19 276.776 693.51ZM287.56 691.42C287.974 691.42 288.347 691.51 288.68 691.69C289.014 691.863 289.274 692.127 289.46 692.48C289.654 692.833 289.75 693.263 289.75 693.77V697H288.85V693.9C288.85 693.353 288.714 692.937 288.44 692.65C288.167 692.357 287.794 692.21 287.32 692.21C286.84 692.21 286.457 692.36 286.17 692.66C285.89 692.96 285.75 693.397 285.75 693.97V697H284.84V689.6H285.75V692.3C285.93 692.02 286.177 691.803 286.49 691.65C286.81 691.497 287.167 691.42 287.56 691.42ZM290.897 694.24C290.897 693.68 291.01 693.19 291.237 692.77C291.463 692.343 291.773 692.013 292.167 691.78C292.567 691.547 293.01 691.43 293.497 691.43C293.977 691.43 294.393 691.533 294.747 691.74C295.1 691.947 295.363 692.207 295.537 692.52V691.52H296.457V697H295.537V695.98C295.357 696.3 295.087 696.567 294.727 696.78C294.373 696.987 293.96 697.09 293.487 697.09C293 697.09 292.56 696.97 292.167 696.73C291.773 696.49 291.463 696.153 291.237 695.72C291.01 695.287 290.897 694.793 290.897 694.24ZM295.537 694.25C295.537 693.837 295.453 693.477 295.287 693.17C295.12 692.863 294.893 692.63 294.607 692.47C294.327 692.303 294.017 692.22 293.677 692.22C293.337 692.22 293.027 692.3 292.747 692.46C292.467 692.62 292.243 692.853 292.077 693.16C291.91 693.467 291.827 693.827 291.827 694.24C291.827 694.66 291.91 695.027 292.077 695.34C292.243 695.647 292.467 695.883 292.747 696.05C293.027 696.21 293.337 696.29 293.677 696.29C294.017 696.29 294.327 696.21 294.607 696.05C294.893 695.883 295.12 695.647 295.287 695.34C295.453 695.027 295.537 694.663 295.537 694.25ZM298.905 692.41C299.065 692.097 299.291 691.853 299.585 691.68C299.885 691.507 300.248 691.42 300.675 691.42V692.36H300.435C299.415 692.36 298.905 692.913 298.905 694.02V697H297.995V691.52H298.905V692.41ZM303.985 691.43C304.458 691.43 304.872 691.533 305.225 691.74C305.585 691.947 305.852 692.207 306.025 692.52V691.52H306.945V697.12C306.945 697.62 306.838 698.063 306.625 698.45C306.412 698.843 306.105 699.15 305.705 699.37C305.312 699.59 304.852 699.7 304.325 699.7C303.605 699.7 303.005 699.53 302.525 699.19C302.045 698.85 301.762 698.387 301.675 697.8H302.575C302.675 698.133 302.882 698.4 303.195 698.6C303.508 698.807 303.885 698.91 304.325 698.91C304.825 698.91 305.232 698.753 305.545 698.44C305.865 698.127 306.025 697.687 306.025 697.12V695.97C305.845 696.29 305.578 696.557 305.225 696.77C304.872 696.983 304.458 697.09 303.985 697.09C303.498 697.09 303.055 696.97 302.655 696.73C302.262 696.49 301.952 696.153 301.725 695.72C301.498 695.287 301.385 694.793 301.385 694.24C301.385 693.68 301.498 693.19 301.725 692.77C301.952 692.343 302.262 692.013 302.655 691.78C303.055 691.547 303.498 691.43 303.985 691.43ZM306.025 694.25C306.025 693.837 305.942 693.477 305.775 693.17C305.608 692.863 305.382 692.63 305.095 692.47C304.815 692.303 304.505 692.22 304.165 692.22C303.825 692.22 303.515 692.3 303.235 692.46C302.955 692.62 302.732 692.853 302.565 693.16C302.398 693.467 302.315 693.827 302.315 694.24C302.315 694.66 302.398 695.027 302.565 695.34C302.732 695.647 302.955 695.883 303.235 696.05C303.515 696.21 303.825 696.29 304.165 696.29C304.505 696.29 304.815 696.21 305.095 696.05C305.382 695.883 305.608 695.647 305.775 695.34C305.942 695.027 306.025 694.663 306.025 694.25ZM313.483 694.05C313.483 694.223 313.473 694.407 313.453 694.6H309.073C309.106 695.14 309.29 695.563 309.623 695.87C309.963 696.17 310.373 696.32 310.853 696.32C311.246 696.32 311.573 696.23 311.833 696.05C312.1 695.863 312.286 695.617 312.393 695.31H313.373C313.226 695.837 312.933 696.267 312.493 696.6C312.053 696.927 311.506 697.09 310.853 697.09C310.333 697.09 309.866 696.973 309.453 696.74C309.046 696.507 308.726 696.177 308.493 695.75C308.26 695.317 308.143 694.817 308.143 694.25C308.143 693.683 308.256 693.187 308.483 692.76C308.71 692.333 309.026 692.007 309.433 691.78C309.846 691.547 310.32 691.43 310.853 691.43C311.373 691.43 311.833 691.543 312.233 691.77C312.633 691.997 312.94 692.31 313.153 692.71C313.373 693.103 313.483 693.55 313.483 694.05ZM312.543 693.86C312.543 693.513 312.466 693.217 312.313 692.97C312.16 692.717 311.95 692.527 311.683 692.4C311.423 692.267 311.133 692.2 310.813 692.2C310.353 692.2 309.96 692.347 309.633 692.64C309.313 692.933 309.13 693.34 309.083 693.86H312.543Z" fill="#60646D"/>
<path d="M265.648 677.084C265.088 677.084 264.584 676.988 264.136 676.796C263.688 676.596 263.336 676.316 263.08 675.956C262.824 675.596 262.696 675.176 262.696 674.696H264.16C264.192 675.056 264.332 675.352 264.58 675.584C264.836 675.816 265.192 675.932 265.648 675.932C266.12 675.932 266.488 675.82 266.752 675.596C267.016 675.364 267.148 675.068 267.148 674.708C267.148 674.428 267.064 674.2 266.896 674.024C266.736 673.848 266.532 673.712 266.284 673.616C266.044 673.52 265.708 673.416 265.276 673.304C264.732 673.16 264.288 673.016 263.944 672.872C263.608 672.72 263.32 672.488 263.08 672.176C262.84 671.864 262.72 671.448 262.72 670.928C262.72 670.448 262.84 670.028 263.08 669.668C263.32 669.308 263.656 669.032 264.088 668.84C264.52 668.648 265.02 668.552 265.588 668.552C266.396 668.552 267.056 668.756 267.568 669.164C268.088 669.564 268.376 670.116 268.432 670.82H266.92C266.896 670.516 266.752 670.256 266.488 670.04C266.224 669.824 265.876 669.716 265.444 669.716C265.052 669.716 264.732 669.816 264.484 670.016C264.236 670.216 264.112 670.504 264.112 670.88C264.112 671.136 264.188 671.348 264.34 671.516C264.5 671.676 264.7 671.804 264.94 671.9C265.18 671.996 265.508 672.1 265.924 672.212C266.476 672.364 266.924 672.516 267.268 672.668C267.62 672.82 267.916 673.056 268.156 673.376C268.404 673.688 268.528 674.108 268.528 674.636C268.528 675.06 268.412 675.46 268.18 675.836C267.956 676.212 267.624 676.516 267.184 676.748C266.752 676.972 266.24 677.084 265.648 677.084ZM269.686 673.664C269.686 673 269.822 672.412 270.094 671.9C270.374 671.388 270.75 670.992 271.222 670.712C271.702 670.424 272.23 670.28 272.806 670.28C273.326 670.28 273.778 670.384 274.162 670.592C274.554 670.792 274.866 671.044 275.098 671.348V670.388H276.478V677H275.098V676.016C274.866 676.328 274.55 676.588 274.15 676.796C273.75 677.004 273.294 677.108 272.782 677.108C272.214 677.108 271.694 676.964 271.222 676.676C270.75 676.38 270.374 675.972 270.094 675.452C269.822 674.924 269.686 674.328 269.686 673.664ZM275.098 673.688C275.098 673.232 275.002 672.836 274.81 672.5C274.626 672.164 274.382 671.908 274.078 671.732C273.774 671.556 273.446 671.468 273.094 671.468C272.742 671.468 272.414 671.556 272.11 671.732C271.806 671.9 271.558 672.152 271.366 672.488C271.182 672.816 271.09 673.208 271.09 673.664C271.09 674.12 271.182 674.52 271.366 674.864C271.558 675.208 271.806 675.472 272.11 675.656C272.422 675.832 272.75 675.92 273.094 675.92C273.446 675.92 273.774 675.832 274.078 675.656C274.382 675.48 274.626 675.224 274.81 674.888C275.002 674.544 275.098 674.144 275.098 673.688ZM286.279 670.28C286.799 670.28 287.263 670.388 287.671 670.604C288.087 670.82 288.411 671.14 288.643 671.564C288.883 671.988 289.003 672.5 289.003 673.1V677H287.647V673.304C287.647 672.712 287.499 672.26 287.203 671.948C286.907 671.628 286.503 671.468 285.991 671.468C285.479 671.468 285.071 671.628 284.767 671.948C284.471 672.26 284.323 672.712 284.323 673.304V677H282.967V673.304C282.967 672.712 282.819 672.26 282.523 671.948C282.227 671.628 281.823 671.468 281.311 671.468C280.799 671.468 280.391 671.628 280.087 671.948C279.791 672.26 279.643 672.712 279.643 673.304V677H278.275V670.388H279.643V671.144C279.867 670.872 280.151 670.66 280.495 670.508C280.839 670.356 281.207 670.28 281.599 670.28C282.127 670.28 282.599 670.392 283.015 670.616C283.431 670.84 283.751 671.164 283.975 671.588C284.175 671.188 284.487 670.872 284.911 670.64C285.335 670.4 285.791 670.28 286.279 670.28ZM296.804 673.532C296.804 673.78 296.788 674.004 296.756 674.204H291.704C291.744 674.732 291.94 675.156 292.292 675.476C292.644 675.796 293.076 675.956 293.588 675.956C294.324 675.956 294.844 675.648 295.148 675.032H296.624C296.424 675.64 296.06 676.14 295.532 676.532C295.012 676.916 294.364 677.108 293.588 677.108C292.956 677.108 292.388 676.968 291.884 676.688C291.388 676.4 290.996 676 290.708 675.488C290.428 674.968 290.288 674.368 290.288 673.688C290.288 673.008 290.424 672.412 290.696 671.9C290.976 671.38 291.364 670.98 291.86 670.7C292.364 670.42 292.94 670.28 293.588 670.28C294.212 670.28 294.768 670.416 295.256 670.688C295.744 670.96 296.124 671.344 296.396 671.84C296.668 672.328 296.804 672.892 296.804 673.532ZM295.376 673.1C295.368 672.596 295.188 672.192 294.836 671.888C294.484 671.584 294.048 671.432 293.528 671.432C293.056 671.432 292.652 671.584 292.316 671.888C291.98 672.184 291.78 672.588 291.716 673.1H295.376ZM300.811 673.664C300.811 673 300.947 672.412 301.219 671.9C301.499 671.388 301.875 670.992 302.347 670.712C302.827 670.424 303.359 670.28 303.943 670.28C304.375 670.28 304.799 670.376 305.215 670.568C305.639 670.752 305.975 671 306.223 671.312V668.12H307.603V677H306.223V676.004C305.999 676.324 305.687 676.588 305.287 676.796C304.895 677.004 304.443 677.108 303.931 677.108C303.355 677.108 302.827 676.964 302.347 676.676C301.875 676.38 301.499 675.972 301.219 675.452C300.947 674.924 300.811 674.328 300.811 673.664ZM306.223 673.688C306.223 673.232 306.127 672.836 305.935 672.5C305.751 672.164 305.507 671.908 305.203 671.732C304.899 671.556 304.571 671.468 304.219 671.468C303.867 671.468 303.539 671.556 303.235 671.732C302.931 671.9 302.683 672.152 302.491 672.488C302.307 672.816 302.215 673.208 302.215 673.664C302.215 674.12 302.307 674.52 302.491 674.864C302.683 675.208 302.931 675.472 303.235 675.656C303.547 675.832 303.875 675.92 304.219 675.92C304.571 675.92 304.899 675.832 305.203 675.656C305.507 675.48 305.751 675.224 305.935 674.888C306.127 674.544 306.223 674.144 306.223 673.688ZM308.944 673.664C308.944 673 309.08 672.412 309.352 671.9C309.632 671.388 310.008 670.992 310.48 670.712C310.96 670.424 311.488 670.28 312.064 670.28C312.584 670.28 313.036 670.384 313.42 670.592C313.812 670.792 314.124 671.044 314.356 671.348V670.388H315.736V677H314.356V676.016C314.124 676.328 313.808 676.588 313.408 676.796C313.008 677.004 312.552 677.108 312.04 677.108C311.472 677.108 310.952 676.964 310.48 676.676C310.008 676.38 309.632 675.972 309.352 675.452C309.08 674.924 308.944 674.328 308.944 673.664ZM314.356 673.688C314.356 673.232 314.26 672.836 314.068 672.5C313.884 672.164 313.64 671.908 313.336 671.732C313.032 671.556 312.704 671.468 312.352 671.468C312 671.468 311.672 671.556 311.368 671.732C311.064 671.9 310.816 672.152 310.624 672.488C310.44 672.816 310.348 673.208 310.348 673.664C310.348 674.12 310.44 674.52 310.624 674.864C310.816 675.208 311.064 675.472 311.368 675.656C311.68 675.832 312.008 675.92 312.352 675.92C312.704 675.92 313.032 675.832 313.336 675.656C313.64 675.48 313.884 675.224 314.068 674.888C314.26 674.544 314.356 674.144 314.356 673.688ZM323.485 670.388L319.429 680.108H318.013L319.357 676.892L316.753 670.388H318.277L320.137 675.428L322.069 670.388H323.485Z" fill="#06183D"/>
<circle cx="286" cy="628" r="24" fill="#FF6845"/>
<path d="M286.625 623.625H294.969L291.625 618.625H286.625V623.625ZM285.375 623.625V618.625H280.375L277.031 623.625H285.375Z" fill="white"/>
<path d="M276.625 624.875V637.375H295.375V624.875H276.625ZM285.375 634.875H279.125V632.375H285.375V634.875Z" fill="white"/>
<g filter="url(#filter3_d_2_71)">
<rect x="92" y="586" width="128" height="133" rx="16" fill="white"/>
</g>
<path d="M115.27 695.09C115.27 695.41 115.19 695.717 115.03 696.01C114.87 696.297 114.633 696.537 114.32 696.73C114.013 696.923 113.643 697.033 113.21 697.06V697.87H112.67V697.06C112.063 697.007 111.57 696.813 111.19 696.48C110.81 696.14 110.617 695.71 110.61 695.19H111.58C111.607 695.47 111.71 695.713 111.89 695.92C112.077 696.127 112.337 696.257 112.67 696.31V693.81C112.223 693.697 111.863 693.58 111.59 693.46C111.317 693.34 111.083 693.153 110.89 692.9C110.697 692.647 110.6 692.307 110.6 691.88C110.6 691.34 110.787 690.893 111.16 690.54C111.54 690.187 112.043 689.99 112.67 689.95V689.12H113.21V689.95C113.777 689.997 114.233 690.18 114.58 690.5C114.927 690.813 115.127 691.223 115.18 691.73H114.21C114.177 691.497 114.073 691.287 113.9 691.1C113.727 690.907 113.497 690.78 113.21 690.72V693.16C113.65 693.273 114.007 693.39 114.28 693.51C114.56 693.623 114.793 693.807 114.98 694.06C115.173 694.313 115.27 694.657 115.27 695.09ZM111.53 691.83C111.53 692.157 111.627 692.407 111.82 692.58C112.013 692.753 112.297 692.897 112.67 693.01V690.7C112.323 690.733 112.047 690.847 111.84 691.04C111.633 691.227 111.53 691.49 111.53 691.83ZM113.21 696.32C113.57 696.28 113.85 696.15 114.05 695.93C114.257 695.71 114.36 695.447 114.36 695.14C114.36 694.813 114.26 694.563 114.06 694.39C113.86 694.21 113.577 694.067 113.21 693.96V696.32ZM116.731 696.27C117.577 695.59 118.241 695.033 118.721 694.6C119.201 694.16 119.604 693.703 119.931 693.23C120.264 692.75 120.431 692.28 120.431 691.82C120.431 691.387 120.324 691.047 120.111 690.8C119.904 690.547 119.567 690.42 119.101 690.42C118.647 690.42 118.294 690.563 118.041 690.85C117.794 691.13 117.661 691.507 117.641 691.98H116.761C116.787 691.233 117.014 690.657 117.441 690.25C117.867 689.843 118.417 689.64 119.091 689.64C119.777 689.64 120.321 689.83 120.721 690.21C121.127 690.59 121.331 691.113 121.331 691.78C121.331 692.333 121.164 692.873 120.831 693.4C120.504 693.92 120.131 694.38 119.711 694.78C119.291 695.173 118.754 695.633 118.101 696.16H121.541V696.92H116.731V696.27ZM125.069 693.51C125.069 692.83 125.222 692.22 125.529 691.68C125.835 691.133 126.252 690.707 126.779 690.4C127.312 690.093 127.902 689.94 128.549 689.94C129.309 689.94 129.972 690.123 130.539 690.49C131.105 690.857 131.519 691.377 131.779 692.05H130.689C130.495 691.63 130.215 691.307 129.849 691.08C129.489 690.853 129.055 690.74 128.549 690.74C128.062 690.74 127.625 690.853 127.239 691.08C126.852 691.307 126.549 691.63 126.329 692.05C126.109 692.463 125.999 692.95 125.999 693.51C125.999 694.063 126.109 694.55 126.329 694.97C126.549 695.383 126.852 695.703 127.239 695.93C127.625 696.157 128.062 696.27 128.549 696.27C129.055 696.27 129.489 696.16 129.849 695.94C130.215 695.713 130.495 695.39 130.689 694.97H131.779C131.519 695.637 131.105 696.153 130.539 696.52C129.972 696.88 129.309 697.06 128.549 697.06C127.902 697.06 127.312 696.91 126.779 696.61C126.252 696.303 125.835 695.88 125.529 695.34C125.222 694.8 125.069 694.19 125.069 693.51ZM135.853 691.42C136.267 691.42 136.64 691.51 136.973 691.69C137.307 691.863 137.567 692.127 137.753 692.48C137.947 692.833 138.043 693.263 138.043 693.77V697H137.143V693.9C137.143 693.353 137.007 692.937 136.733 692.65C136.46 692.357 136.087 692.21 135.613 692.21C135.133 692.21 134.75 692.36 134.463 692.66C134.183 692.96 134.043 693.397 134.043 693.97V697H133.133V689.6H134.043V692.3C134.223 692.02 134.47 691.803 134.783 691.65C135.103 691.497 135.46 691.42 135.853 691.42ZM139.19 694.24C139.19 693.68 139.303 693.19 139.53 692.77C139.756 692.343 140.066 692.013 140.46 691.78C140.86 691.547 141.303 691.43 141.79 691.43C142.27 691.43 142.686 691.533 143.04 691.74C143.393 691.947 143.656 692.207 143.83 692.52V691.52H144.75V697H143.83V695.98C143.65 696.3 143.38 696.567 143.02 696.78C142.666 696.987 142.253 697.09 141.78 697.09C141.293 697.09 140.853 696.97 140.46 696.73C140.066 696.49 139.756 696.153 139.53 695.72C139.303 695.287 139.19 694.793 139.19 694.24ZM143.83 694.25C143.83 693.837 143.746 693.477 143.58 693.17C143.413 692.863 143.186 692.63 142.9 692.47C142.62 692.303 142.31 692.22 141.97 692.22C141.63 692.22 141.32 692.3 141.04 692.46C140.76 692.62 140.536 692.853 140.37 693.16C140.203 693.467 140.12 693.827 140.12 694.24C140.12 694.66 140.203 695.027 140.37 695.34C140.536 695.647 140.76 695.883 141.04 696.05C141.32 696.21 141.63 696.29 141.97 696.29C142.31 696.29 142.62 696.21 142.9 696.05C143.186 695.883 143.413 695.647 143.58 695.34C143.746 695.027 143.83 694.663 143.83 694.25ZM147.198 692.41C147.358 692.097 147.584 691.853 147.878 691.68C148.178 691.507 148.541 691.42 148.968 691.42V692.36H148.728C147.708 692.36 147.198 692.913 147.198 694.02V697H146.288V691.52H147.198V692.41ZM152.278 691.43C152.751 691.43 153.165 691.533 153.518 691.74C153.878 691.947 154.145 692.207 154.318 692.52V691.52H155.238V697.12C155.238 697.62 155.131 698.063 154.918 698.45C154.705 698.843 154.398 699.15 153.998 699.37C153.605 699.59 153.145 699.7 152.618 699.7C151.898 699.7 151.298 699.53 150.818 699.19C150.338 698.85 150.055 698.387 149.968 697.8H150.868C150.968 698.133 151.175 698.4 151.488 698.6C151.801 698.807 152.178 698.91 152.618 698.91C153.118 698.91 153.525 698.753 153.838 698.44C154.158 698.127 154.318 697.687 154.318 697.12V695.97C154.138 696.29 153.871 696.557 153.518 696.77C153.165 696.983 152.751 697.09 152.278 697.09C151.791 697.09 151.348 696.97 150.948 696.73C150.555 696.49 150.245 696.153 150.018 695.72C149.791 695.287 149.678 694.793 149.678 694.24C149.678 693.68 149.791 693.19 150.018 692.77C150.245 692.343 150.555 692.013 150.948 691.78C151.348 691.547 151.791 691.43 152.278 691.43ZM154.318 694.25C154.318 693.837 154.235 693.477 154.068 693.17C153.901 692.863 153.675 692.63 153.388 692.47C153.108 692.303 152.798 692.22 152.458 692.22C152.118 692.22 151.808 692.3 151.528 692.46C151.248 692.62 151.025 692.853 150.858 693.16C150.691 693.467 150.608 693.827 150.608 694.24C150.608 694.66 150.691 695.027 150.858 695.34C151.025 695.647 151.248 695.883 151.528 696.05C151.808 696.21 152.118 696.29 152.458 696.29C152.798 696.29 153.108 696.21 153.388 696.05C153.675 695.883 153.901 695.647 154.068 695.34C154.235 695.027 154.318 694.663 154.318 694.25ZM161.776 694.05C161.776 694.223 161.766 694.407 161.746 694.6H157.366C157.399 695.14 157.583 695.563 157.916 695.87C158.256 696.17 158.666 696.32 159.146 696.32C159.539 696.32 159.866 696.23 160.126 696.05C160.393 695.863 160.579 695.617 160.686 695.31H161.666C161.519 695.837 161.226 696.267 160.786 696.6C160.346 696.927 159.799 697.09 159.146 697.09C158.626 697.09 158.159 696.973 157.746 696.74C157.339 696.507 157.019 696.177 156.786 695.75C156.553 695.317 156.436 694.817 156.436 694.25C156.436 693.683 156.549 693.187 156.776 692.76C157.003 692.333 157.319 692.007 157.726 691.78C158.139 691.547 158.613 691.43 159.146 691.43C159.666 691.43 160.126 691.543 160.526 691.77C160.926 691.997 161.233 692.31 161.446 692.71C161.666 693.103 161.776 693.55 161.776 694.05ZM160.836 693.86C160.836 693.513 160.759 693.217 160.606 692.97C160.453 692.717 160.243 692.527 159.976 692.4C159.716 692.267 159.426 692.2 159.106 692.2C158.646 692.2 158.253 692.347 157.926 692.64C157.606 692.933 157.423 693.34 157.376 693.86H160.836Z" fill="#60646D"/>
<path d="M117.752 677H116.384L112.268 670.772V677H110.9V668.648H112.268L116.384 674.864V668.648H117.752V677ZM122.416 677.108C121.792 677.108 121.228 676.968 120.724 676.688C120.22 676.4 119.824 676 119.536 675.488C119.248 674.968 119.104 674.368 119.104 673.688C119.104 673.016 119.252 672.42 119.548 671.9C119.844 671.38 120.248 670.98 120.76 670.7C121.272 670.42 121.844 670.28 122.476 670.28C123.108 670.28 123.68 670.42 124.192 670.7C124.704 670.98 125.108 671.38 125.404 671.9C125.7 672.42 125.848 673.016 125.848 673.688C125.848 674.36 125.696 674.956 125.392 675.476C125.088 675.996 124.672 676.4 124.144 676.688C123.624 676.968 123.048 677.108 122.416 677.108ZM122.416 675.92C122.768 675.92 123.096 675.836 123.4 675.668C123.712 675.5 123.964 675.248 124.156 674.912C124.348 674.576 124.444 674.168 124.444 673.688C124.444 673.208 124.352 672.804 124.168 672.476C123.984 672.14 123.74 671.888 123.436 671.72C123.132 671.552 122.804 671.468 122.452 671.468C122.1 671.468 121.772 671.552 121.468 671.72C121.172 671.888 120.936 672.14 120.76 672.476C120.584 672.804 120.496 673.208 120.496 673.688C120.496 674.4 120.676 674.952 121.036 675.344C121.404 675.728 121.864 675.92 122.416 675.92ZM128.569 671.348C128.769 671.012 129.033 670.752 129.361 670.568C129.697 670.376 130.093 670.28 130.549 670.28V671.696H130.201C129.665 671.696 129.257 671.832 128.977 672.104C128.705 672.376 128.569 672.848 128.569 673.52V677H127.201V670.388H128.569V671.348ZM139.81 670.28C140.33 670.28 140.794 670.388 141.202 670.604C141.618 670.82 141.942 671.14 142.174 671.564C142.414 671.988 142.534 672.5 142.534 673.1V677H141.178V673.304C141.178 672.712 141.03 672.26 140.734 671.948C140.438 671.628 140.034 671.468 139.522 671.468C139.01 671.468 138.602 671.628 138.298 671.948C138.002 672.26 137.854 672.712 137.854 673.304V677H136.498V673.304C136.498 672.712 136.35 672.26 136.054 671.948C135.758 671.628 135.354 671.468 134.842 671.468C134.33 671.468 133.922 671.628 133.618 671.948C133.322 672.26 133.174 672.712 133.174 673.304V677H131.806V670.388H133.174V671.144C133.398 670.872 133.682 670.66 134.026 670.508C134.37 670.356 134.738 670.28 135.13 670.28C135.658 670.28 136.13 670.392 136.546 670.616C136.962 670.84 137.282 671.164 137.506 671.588C137.706 671.188 138.018 670.872 138.442 670.64C138.866 670.4 139.322 670.28 139.81 670.28ZM143.819 673.664C143.819 673 143.955 672.412 144.227 671.9C144.507 671.388 144.883 670.992 145.355 670.712C145.835 670.424 146.363 670.28 146.939 670.28C147.459 670.28 147.911 670.384 148.295 670.592C148.687 670.792 148.999 671.044 149.231 671.348V670.388H150.611V677H149.231V676.016C148.999 676.328 148.683 676.588 148.283 676.796C147.883 677.004 147.427 677.108 146.915 677.108C146.347 677.108 145.827 676.964 145.355 676.676C144.883 676.38 144.507 675.972 144.227 675.452C143.955 674.924 143.819 674.328 143.819 673.664ZM149.231 673.688C149.231 673.232 149.135 672.836 148.943 672.5C148.759 672.164 148.515 671.908 148.211 671.732C147.907 671.556 147.579 671.468 147.227 671.468C146.875 671.468 146.547 671.556 146.243 671.732C145.939 671.9 145.691 672.152 145.499 672.488C145.315 672.816 145.223 673.208 145.223 673.664C145.223 674.12 145.315 674.52 145.499 674.864C145.691 675.208 145.939 675.472 146.243 675.656C146.555 675.832 146.883 675.92 147.227 675.92C147.579 675.92 147.907 675.832 148.211 675.656C148.515 675.48 148.759 675.224 148.943 674.888C149.135 674.544 149.231 674.144 149.231 673.688ZM153.776 668.12V677H152.408V668.12H153.776ZM161.437 677.084C160.877 677.084 160.373 676.988 159.925 676.796C159.477 676.596 159.125 676.316 158.869 675.956C158.613 675.596 158.485 675.176 158.485 674.696H159.949C159.981 675.056 160.121 675.352 160.369 675.584C160.625 675.816 160.981 675.932 161.437 675.932C161.909 675.932 162.277 675.82 162.541 675.596C162.805 675.364 162.937 675.068 162.937 674.708C162.937 674.428 162.853 674.2 162.685 674.024C162.525 673.848 162.321 673.712 162.073 673.616C161.833 673.52 161.497 673.416 161.065 673.304C160.521 673.16 160.077 673.016 159.733 672.872C159.397 672.72 159.109 672.488 158.869 672.176C158.629 671.864 158.509 671.448 158.509 670.928C158.509 670.448 158.629 670.028 158.869 669.668C159.109 669.308 159.445 669.032 159.877 668.84C160.309 668.648 160.809 668.552 161.377 668.552C162.185 668.552 162.845 668.756 163.357 669.164C163.877 669.564 164.165 670.116 164.221 670.82H162.709C162.685 670.516 162.541 670.256 162.277 670.04C162.013 669.824 161.665 669.716 161.233 669.716C160.841 669.716 160.521 669.816 160.273 670.016C160.025 670.216 159.901 670.504 159.901 670.88C159.901 671.136 159.977 671.348 160.129 671.516C160.289 671.676 160.489 671.804 160.729 671.9C160.969 671.996 161.297 672.1 161.713 672.212C162.265 672.364 162.713 672.516 163.057 672.668C163.409 672.82 163.705 673.056 163.945 673.376C164.193 673.688 164.317 674.108 164.317 674.636C164.317 675.06 164.201 675.46 163.969 675.836C163.745 676.212 163.413 676.516 162.973 676.748C162.541 676.972 162.029 677.084 161.437 677.084ZM171.991 673.532C171.991 673.78 171.975 674.004 171.943 674.204H166.891C166.931 674.732 167.127 675.156 167.479 675.476C167.831 675.796 168.263 675.956 168.775 675.956C169.511 675.956 170.031 675.648 170.335 675.032H171.811C171.611 675.64 171.247 676.14 170.719 676.532C170.199 676.916 169.551 677.108 168.775 677.108C168.143 677.108 167.575 676.968 167.071 676.688C166.575 676.4 166.183 676 165.895 675.488C165.615 674.968 165.475 674.368 165.475 673.688C165.475 673.008 165.611 672.412 165.883 671.9C166.163 671.38 166.551 670.98 167.047 670.7C167.551 670.42 168.127 670.28 168.775 670.28C169.399 670.28 169.955 670.416 170.443 670.688C170.931 670.96 171.311 671.344 171.583 671.84C171.855 672.328 171.991 672.892 171.991 673.532ZM170.563 673.1C170.555 672.596 170.375 672.192 170.023 671.888C169.671 671.584 169.235 671.432 168.715 671.432C168.243 671.432 167.839 671.584 167.503 671.888C167.167 672.184 166.967 672.588 166.903 673.1H170.563ZM174.706 671.348C174.906 671.012 175.17 670.752 175.498 670.568C175.834 670.376 176.23 670.28 176.686 670.28V671.696H176.338C175.802 671.696 175.394 671.832 175.114 672.104C174.842 672.376 174.706 672.848 174.706 673.52V677H173.338V670.388H174.706V671.348ZM180.499 675.776L182.371 670.388H183.823L181.303 677H179.671L177.163 670.388H178.627L180.499 675.776ZM185.553 669.512C185.305 669.512 185.097 669.428 184.929 669.26C184.761 669.092 184.677 668.884 184.677 668.636C184.677 668.388 184.761 668.18 184.929 668.012C185.097 667.844 185.305 667.76 185.553 667.76C185.793 667.76 185.997 667.844 186.165 668.012C186.333 668.18 186.417 668.388 186.417 668.636C186.417 668.884 186.333 669.092 186.165 669.26C185.997 669.428 185.793 669.512 185.553 669.512ZM186.225 670.388V677H184.857V670.388H186.225ZM187.565 673.688C187.565 673.008 187.701 672.412 187.973 671.9C188.253 671.38 188.637 670.98 189.125 670.7C189.613 670.42 190.173 670.28 190.805 670.28C191.605 670.28 192.265 670.472 192.785 670.856C193.313 671.232 193.669 671.772 193.853 672.476H192.377C192.257 672.148 192.065 671.892 191.801 671.708C191.537 671.524 191.205 671.432 190.805 671.432C190.245 671.432 189.797 671.632 189.461 672.032C189.133 672.424 188.969 672.976 188.969 673.688C188.969 674.4 189.133 674.956 189.461 675.356C189.797 675.756 190.245 675.956 190.805 675.956C191.597 675.956 192.121 675.608 192.377 674.912H193.853C193.661 675.584 193.301 676.12 192.773 676.52C192.245 676.912 191.589 677.108 190.805 677.108C190.173 677.108 189.613 676.968 189.125 676.688C188.637 676.4 188.253 676 187.973 675.488C187.701 674.968 187.565 674.368 187.565 673.688ZM201.276 673.532C201.276 673.78 201.26 674.004 201.228 674.204H196.176C196.216 674.732 196.412 675.156 196.764 675.476C197.116 675.796 197.548 675.956 198.06 675.956C198.796 675.956 199.316 675.648 199.62 675.032H201.096C200.896 675.64 200.532 676.14 200.004 676.532C199.484 676.916 198.836 677.108 198.06 677.108C197.428 677.108 196.86 676.968 196.356 676.688C195.86 676.4 195.468 676 195.18 675.488C194.9 674.968 194.76 674.368 194.76 673.688C194.76 673.008 194.896 672.412 195.168 671.9C195.448 671.38 195.836 670.98 196.332 670.7C196.836 670.42 197.412 670.28 198.06 670.28C198.684 670.28 199.24 670.416 199.728 670.688C200.216 670.96 200.596 671.344 200.868 671.84C201.14 672.328 201.276 672.892 201.276 673.532ZM199.848 673.1C199.84 672.596 199.66 672.192 199.308 671.888C198.956 671.584 198.52 671.432 198 671.432C197.528 671.432 197.124 671.584 196.788 671.888C196.452 672.184 196.252 672.588 196.188 673.1H199.848Z" fill="#06183D"/>
<circle cx="134" cy="628" r="24" fill="#145FF0"/>
<path d="M134.625 623.625H142.969L139.625 618.625H134.625V623.625ZM133.375 623.625V618.625H128.375L125.031 623.625H133.375Z" fill="white"/>
<path d="M124.625 624.875V637.375H143.375V624.875H124.625ZM133.375 634.875H127.125V632.375H133.375V634.875Z" fill="white"/>
<path d="M97.634 544.436C98.954 544.436 100.112 544.694 101.108 545.21C102.116 545.726 102.89 546.464 103.43 547.424C103.982 548.372 104.258 549.476 104.258 550.736C104.258 551.996 103.982 553.1 103.43 554.048C102.89 554.984 102.116 555.71 101.108 556.226C100.112 556.742 98.954 557 97.634 557H93.242V544.436H97.634ZM97.544 554.858C98.864 554.858 99.884 554.498 100.604 553.778C101.324 553.058 101.684 552.044 101.684 550.736C101.684 549.428 101.324 548.408 100.604 547.676C99.884 546.932 98.864 546.56 97.544 546.56H95.762V554.858H97.544ZM115.414 551.798C115.414 552.158 115.39 552.482 115.342 552.77H108.052C108.112 553.49 108.364 554.054 108.808 554.462C109.252 554.87 109.798 555.074 110.446 555.074C111.382 555.074 112.048 554.672 112.444 553.868H115.162C114.874 554.828 114.322 555.62 113.506 556.244C112.69 556.856 111.688 557.162 110.5 557.162C109.54 557.162 108.676 556.952 107.908 556.532C107.152 556.1 106.558 555.494 106.126 554.714C105.706 553.934 105.496 553.034 105.496 552.014C105.496 550.982 105.706 550.076 106.126 549.296C106.546 548.516 107.134 547.916 107.89 547.496C108.646 547.076 109.516 546.866 110.5 546.866C111.448 546.866 112.294 547.07 113.038 547.478C113.794 547.886 114.376 548.468 114.784 549.224C115.204 549.968 115.414 550.826 115.414 551.798ZM112.804 551.078C112.792 550.43 112.558 549.914 112.102 549.53C111.646 549.134 111.088 548.936 110.428 548.936C109.804 548.936 109.276 549.128 108.844 549.512C108.424 549.884 108.166 550.406 108.07 551.078H112.804ZM119.774 543.68V557H117.254V543.68H119.774ZM123.541 545.84C123.097 545.84 122.725 545.702 122.425 545.426C122.137 545.138 121.993 544.784 121.993 544.364C121.993 543.944 122.137 543.596 122.425 543.32C122.725 543.032 123.097 542.888 123.541 542.888C123.985 542.888 124.351 543.032 124.639 543.32C124.939 543.596 125.089 543.944 125.089 544.364C125.089 544.784 124.939 545.138 124.639 545.426C124.351 545.702 123.985 545.84 123.541 545.84ZM124.783 547.028V557H122.263V547.028H124.783ZM131.431 554.678L133.951 547.028H136.633L132.943 557H129.883L126.211 547.028H128.911L131.431 554.678ZM147.319 551.798C147.319 552.158 147.295 552.482 147.247 552.77H139.957C140.017 553.49 140.269 554.054 140.713 554.462C141.157 554.87 141.703 555.074 142.351 555.074C143.287 555.074 143.953 554.672 144.349 553.868H147.067C146.779 554.828 146.227 555.62 145.411 556.244C144.595 556.856 143.593 557.162 142.405 557.162C141.445 557.162 140.581 556.952 139.813 556.532C139.057 556.1 138.463 555.494 138.031 554.714C137.611 553.934 137.401 553.034 137.401 552.014C137.401 550.982 137.611 550.076 138.031 549.296C138.451 548.516 139.039 547.916 139.795 547.496C140.551 547.076 141.421 546.866 142.405 546.866C143.353 546.866 144.199 547.07 144.943 547.478C145.699 547.886 146.281 548.468 146.689 549.224C147.109 549.968 147.319 550.826 147.319 551.798ZM144.709 551.078C144.697 550.43 144.463 549.914 144.007 549.53C143.551 549.134 142.993 548.936 142.333 548.936C141.709 548.936 141.181 549.128 140.749 549.512C140.329 549.884 140.071 550.406 139.975 551.078H144.709ZM151.678 548.576C152.002 548.048 152.422 547.634 152.938 547.334C153.466 547.034 154.066 546.884 154.738 546.884V549.53H154.072C153.28 549.53 152.68 549.716 152.272 550.088C151.876 550.46 151.678 551.108 151.678 552.032V557H149.158V547.028H151.678V548.576ZM165.975 547.028L159.801 561.716H157.119L159.279 556.748L155.283 547.028H158.109L160.683 553.994L163.293 547.028H165.975ZM180.173 544.436V546.47H176.825V557H174.305V546.47H170.957V544.436H180.173ZM191.552 547.028L185.378 561.716H182.696L184.856 556.748L180.86 547.028H183.686L186.26 553.994L188.87 547.028H191.552ZM195.43 548.468C195.754 548.012 196.198 547.634 196.762 547.334C197.338 547.022 197.992 546.866 198.724 546.866C199.576 546.866 200.344 547.076 201.028 547.496C201.724 547.916 202.27 548.516 202.666 549.296C203.074 550.064 203.278 550.958 203.278 551.978C203.278 552.998 203.074 553.904 202.666 554.696C202.27 555.476 201.724 556.082 201.028 556.514C200.344 556.946 199.576 557.162 198.724 557.162C197.992 557.162 197.344 557.012 196.78 556.712C196.228 556.412 195.778 556.034 195.43 555.578V561.752H192.91V547.028H195.43V548.468ZM200.704 551.978C200.704 551.378 200.578 550.862 200.326 550.43C200.086 549.986 199.762 549.65 199.354 549.422C198.958 549.194 198.526 549.08 198.058 549.08C197.602 549.08 197.17 549.2 196.762 549.44C196.366 549.668 196.042 550.004 195.79 550.448C195.55 550.892 195.43 551.414 195.43 552.014C195.43 552.614 195.55 553.136 195.79 553.58C196.042 554.024 196.366 554.366 196.762 554.606C197.17 554.834 197.602 554.948 198.058 554.948C198.526 554.948 198.958 554.828 199.354 554.588C199.762 554.348 200.086 554.006 200.326 553.562C200.578 553.118 200.704 552.59 200.704 551.978ZM214.379 551.798C214.379 552.158 214.355 552.482 214.307 552.77H207.017C207.077 553.49 207.329 554.054 207.773 554.462C208.217 554.87 208.763 555.074 209.411 555.074C210.347 555.074 211.013 554.672 211.409 553.868H214.127C213.839 554.828 213.287 555.62 212.471 556.244C211.655 556.856 210.653 557.162 209.465 557.162C208.505 557.162 207.641 556.952 206.873 556.532C206.117 556.1 205.523 555.494 205.091 554.714C204.671 553.934 204.461 553.034 204.461 552.014C204.461 550.982 204.671 550.076 205.091 549.296C205.511 548.516 206.099 547.916 206.855 547.496C207.611 547.076 208.481 546.866 209.465 546.866C210.413 546.866 211.259 547.07 212.003 547.478C212.759 547.886 213.341 548.468 213.749 549.224C214.169 549.968 214.379 550.826 214.379 551.798ZM211.769 551.078C211.757 550.43 211.523 549.914 211.067 549.53C210.611 549.134 210.053 548.936 209.393 548.936C208.769 548.936 208.241 549.128 207.809 549.512C207.389 549.884 207.131 550.406 207.035 551.078H211.769ZM220.035 557.162C219.219 557.162 218.487 557.018 217.839 556.73C217.191 556.43 216.675 556.028 216.291 555.524C215.919 555.02 215.715 554.462 215.679 553.85H218.217C218.265 554.234 218.451 554.552 218.775 554.804C219.111 555.056 219.525 555.182 220.017 555.182C220.497 555.182 220.869 555.086 221.133 554.894C221.409 554.702 221.547 554.456 221.547 554.156C221.547 553.832 221.379 553.592 221.043 553.436C220.719 553.268 220.197 553.088 219.477 552.896C218.733 552.716 218.121 552.53 217.641 552.338C217.173 552.146 216.765 551.852 216.417 551.456C216.081 551.06 215.913 550.526 215.913 549.854C215.913 549.302 216.069 548.798 216.381 548.342C216.705 547.886 217.161 547.526 217.749 547.262C218.349 546.998 219.051 546.866 219.855 546.866C221.043 546.866 221.991 547.166 222.699 547.766C223.407 548.354 223.797 549.152 223.869 550.16H221.457C221.421 549.764 221.253 549.452 220.953 549.224C220.665 548.984 220.275 548.864 219.783 548.864C219.327 548.864 218.973 548.948 218.721 549.116C218.481 549.284 218.361 549.518 218.361 549.818C218.361 550.154 218.529 550.412 218.865 550.592C219.201 550.76 219.723 550.934 220.431 551.114C221.151 551.294 221.745 551.48 222.213 551.672C222.681 551.864 223.083 552.164 223.419 552.572C223.767 552.968 223.947 553.496 223.959 554.156C223.959 554.732 223.797 555.248 223.473 555.704C223.161 556.16 222.705 556.52 222.105 556.784C221.517 557.036 220.827 557.162 220.035 557.162Z" fill="#06183D"/>
<rect x="68" y="44" width="336" height="459" rx="33" fill="#FA8D74"/>
<path d="M371 44H101C82.7746 44 68 58.7746 68 77V180.041C68 183 68.4003 185.916 69.1379 188.782C84.7367 249.39 94.9839 362.919 260.5 318C430 272 312 503 250 503H371C389.225 503 404 488.225 404 470V77C404 58.7746 389.225 44 371 44Z" fill="#FF9B84"/>
<circle cx="378" cy="237" r="4" fill="#1965FF"/>
<circle cx="177" cy="237" r="4" fill="#1965FF"/>
<circle cx="304" cy="195" r="6" fill="#FBD95F"/>
<circle r="2" transform="matrix(1 0 0 -1 306 272)" fill="#F65C63"/>
<circle cx="111" cy="464" r="10" fill="#F65C63"/>
<circle cx="128" cy="371" r="4" fill="#FCB91D"/>
<circle cx="191" cy="407" r="2" fill="#0F6AFF"/>
<circle cx="171" cy="451" r="2" fill="#02186B"/>
<path d="M110.144 101.456V121H106.224V112.684H97.852V121H93.932V101.456H97.852V109.492H106.224V101.456H110.144ZM112.994 113.188C112.994 111.62 113.302 110.229 113.918 109.016C114.553 107.803 115.402 106.869 116.466 106.216C117.549 105.563 118.753 105.236 120.078 105.236C121.236 105.236 122.244 105.469 123.102 105.936C123.98 106.403 124.68 106.991 125.202 107.7V105.488H129.15V121H125.202V118.732C124.698 119.46 123.998 120.067 123.102 120.552C122.225 121.019 121.208 121.252 120.05 121.252C118.744 121.252 117.549 120.916 116.466 120.244C115.402 119.572 114.553 118.629 113.918 117.416C113.302 116.184 112.994 114.775 112.994 113.188ZM125.202 113.244C125.202 112.292 125.016 111.48 124.642 110.808C124.269 110.117 123.765 109.595 123.13 109.24C122.496 108.867 121.814 108.68 121.086 108.68C120.358 108.68 119.686 108.857 119.07 109.212C118.454 109.567 117.95 110.089 117.558 110.78C117.185 111.452 116.998 112.255 116.998 113.188C116.998 114.121 117.185 114.943 117.558 115.652C117.95 116.343 118.454 116.875 119.07 117.248C119.705 117.621 120.377 117.808 121.086 117.808C121.814 117.808 122.496 117.631 123.13 117.276C123.765 116.903 124.269 116.38 124.642 115.708C125.016 115.017 125.202 114.196 125.202 113.244ZM136.899 107.728C137.403 107.019 138.094 106.431 138.971 105.964C139.867 105.479 140.884 105.236 142.023 105.236C143.348 105.236 144.543 105.563 145.607 106.216C146.69 106.869 147.539 107.803 148.155 109.016C148.79 110.211 149.107 111.601 149.107 113.188C149.107 114.775 148.79 116.184 148.155 117.416C147.539 118.629 146.69 119.572 145.607 120.244C144.543 120.916 143.348 121.252 142.023 121.252C140.884 121.252 139.876 121.019 138.999 120.552C138.14 120.085 137.44 119.497 136.899 118.788V128.392H132.979V105.488H136.899V107.728ZM145.103 113.188C145.103 112.255 144.907 111.452 144.515 110.78C144.142 110.089 143.638 109.567 143.003 109.212C142.387 108.857 141.715 108.68 140.987 108.68C140.278 108.68 139.606 108.867 138.971 109.24C138.355 109.595 137.851 110.117 137.459 110.808C137.086 111.499 136.899 112.311 136.899 113.244C136.899 114.177 137.086 114.989 137.459 115.68C137.851 116.371 138.355 116.903 138.971 117.276C139.606 117.631 140.278 117.808 140.987 117.808C141.715 117.808 142.387 117.621 143.003 117.248C143.638 116.875 144.142 116.343 144.515 115.652C144.907 114.961 145.103 114.14 145.103 113.188ZM155.875 107.728C156.379 107.019 157.07 106.431 157.947 105.964C158.843 105.479 159.861 105.236 160.999 105.236C162.325 105.236 163.519 105.563 164.583 106.216C165.666 106.869 166.515 107.803 167.131 109.016C167.766 110.211 168.083 111.601 168.083 113.188C168.083 114.775 167.766 116.184 167.131 117.416C166.515 118.629 165.666 119.572 164.583 120.244C163.519 120.916 162.325 121.252 160.999 121.252C159.861 121.252 158.853 121.019 157.975 120.552C157.117 120.085 156.417 119.497 155.875 118.788V128.392H151.955V105.488H155.875V107.728ZM164.079 113.188C164.079 112.255 163.883 111.452 163.491 110.78C163.118 110.089 162.614 109.567 161.979 109.212C161.363 108.857 160.691 108.68 159.963 108.68C159.254 108.68 158.582 108.867 157.947 109.24C157.331 109.595 156.827 110.117 156.435 110.808C156.062 111.499 155.875 112.311 155.875 113.244C155.875 114.177 156.062 114.989 156.435 115.68C156.827 116.371 157.331 116.903 157.947 117.276C158.582 117.631 159.254 117.808 159.963 117.808C160.691 117.808 161.363 117.621 161.979 117.248C162.614 116.875 163.118 116.343 163.491 115.652C163.883 114.961 164.079 114.14 164.079 113.188ZM172.92 103.64C172.229 103.64 171.651 103.425 171.184 102.996C170.736 102.548 170.512 101.997 170.512 101.344C170.512 100.691 170.736 100.149 171.184 99.72C171.651 99.272 172.229 99.048 172.92 99.048C173.611 99.048 174.18 99.272 174.628 99.72C175.095 100.149 175.328 100.691 175.328 101.344C175.328 101.997 175.095 102.548 174.628 102.996C174.18 103.425 173.611 103.64 172.92 103.64ZM174.852 105.488V121H170.932V105.488H174.852ZM187.321 105.264C189.169 105.264 190.662 105.852 191.801 107.028C192.94 108.185 193.509 109.809 193.509 111.9V121H189.589V112.432C189.589 111.2 189.281 110.257 188.665 109.604C188.049 108.932 187.209 108.596 186.145 108.596C185.062 108.596 184.204 108.932 183.569 109.604C182.953 110.257 182.645 111.2 182.645 112.432V121H178.725V105.488H182.645V107.42C183.168 106.748 183.83 106.225 184.633 105.852C185.454 105.46 186.35 105.264 187.321 105.264ZM211.657 112.908C211.657 113.468 211.619 113.972 211.545 114.42H200.205C200.298 115.54 200.69 116.417 201.381 117.052C202.071 117.687 202.921 118.004 203.929 118.004C205.385 118.004 206.421 117.379 207.037 116.128H211.265C210.817 117.621 209.958 118.853 208.689 119.824C207.419 120.776 205.861 121.252 204.013 121.252C202.519 121.252 201.175 120.925 199.981 120.272C198.805 119.6 197.881 118.657 197.209 117.444C196.555 116.231 196.229 114.831 196.229 113.244C196.229 111.639 196.555 110.229 197.209 109.016C197.862 107.803 198.777 106.869 199.953 106.216C201.129 105.563 202.482 105.236 204.013 105.236C205.487 105.236 206.803 105.553 207.961 106.188C209.137 106.823 210.042 107.728 210.677 108.904C211.33 110.061 211.657 111.396 211.657 112.908ZM207.597 111.788C207.578 110.78 207.214 109.977 206.505 109.38C205.795 108.764 204.927 108.456 203.901 108.456C202.93 108.456 202.109 108.755 201.437 109.352C200.783 109.931 200.382 110.743 200.233 111.788H207.597ZM220.454 121.252C219.185 121.252 218.046 121.028 217.038 120.58C216.03 120.113 215.227 119.488 214.63 118.704C214.051 117.92 213.734 117.052 213.678 116.1H217.626C217.701 116.697 217.99 117.192 218.494 117.584C219.017 117.976 219.661 118.172 220.426 118.172C221.173 118.172 221.751 118.023 222.162 117.724C222.591 117.425 222.806 117.043 222.806 116.576C222.806 116.072 222.545 115.699 222.022 115.456C221.518 115.195 220.706 114.915 219.586 114.616C218.429 114.336 217.477 114.047 216.73 113.748C216.002 113.449 215.367 112.992 214.826 112.376C214.303 111.76 214.042 110.929 214.042 109.884C214.042 109.025 214.285 108.241 214.77 107.532C215.274 106.823 215.983 106.263 216.898 105.852C217.831 105.441 218.923 105.236 220.174 105.236C222.022 105.236 223.497 105.703 224.598 106.636C225.699 107.551 226.306 108.792 226.418 110.36H222.666C222.61 109.744 222.349 109.259 221.882 108.904C221.434 108.531 220.827 108.344 220.062 108.344C219.353 108.344 218.802 108.475 218.41 108.736C218.037 108.997 217.85 109.361 217.85 109.828C217.85 110.351 218.111 110.752 218.634 111.032C219.157 111.293 219.969 111.564 221.07 111.844C222.19 112.124 223.114 112.413 223.842 112.712C224.57 113.011 225.195 113.477 225.718 114.112C226.259 114.728 226.539 115.549 226.558 116.576C226.558 117.472 226.306 118.275 225.802 118.984C225.317 119.693 224.607 120.253 223.674 120.664C222.759 121.056 221.686 121.252 220.454 121.252ZM235.712 121.252C234.442 121.252 233.304 121.028 232.296 120.58C231.288 120.113 230.485 119.488 229.888 118.704C229.309 117.92 228.992 117.052 228.936 116.1H232.884C232.958 116.697 233.248 117.192 233.752 117.584C234.274 117.976 234.918 118.172 235.684 118.172C236.43 118.172 237.009 118.023 237.42 117.724C237.849 117.425 238.064 117.043 238.064 116.576C238.064 116.072 237.802 115.699 237.28 115.456C236.776 115.195 235.964 114.915 234.844 114.616C233.686 114.336 232.734 114.047 231.988 113.748C231.26 113.449 230.625 112.992 230.084 112.376C229.561 111.76 229.3 110.929 229.3 109.884C229.3 109.025 229.542 108.241 230.028 107.532C230.532 106.823 231.241 106.263 232.156 105.852C233.089 105.441 234.181 105.236 235.432 105.236C237.28 105.236 238.754 105.703 239.856 106.636C240.957 107.551 241.564 108.792 241.676 110.36H237.924C237.868 109.744 237.606 109.259 237.14 108.904C236.692 108.531 236.085 108.344 235.32 108.344C234.61 108.344 234.06 108.475 233.668 108.736C233.294 108.997 233.108 109.361 233.108 109.828C233.108 110.351 233.369 110.752 233.892 111.032C234.414 111.293 235.226 111.564 236.328 111.844C237.448 112.124 238.372 112.413 239.1 112.712C239.828 113.011 240.453 113.477 240.976 114.112C241.517 114.728 241.797 115.549 241.816 116.576C241.816 117.472 241.564 118.275 241.06 118.984C240.574 119.693 239.865 120.253 238.932 120.664C238.017 121.056 236.944 121.252 235.712 121.252ZM253.693 103.64C253.003 103.64 252.424 103.425 251.957 102.996C251.509 102.548 251.285 101.997 251.285 101.344C251.285 100.691 251.509 100.149 251.957 99.72C252.424 99.272 253.003 99.048 253.693 99.048C254.384 99.048 254.953 99.272 255.401 99.72C255.868 100.149 256.101 100.691 256.101 101.344C256.101 101.997 255.868 102.548 255.401 102.996C254.953 103.425 254.384 103.64 253.693 103.64ZM255.625 105.488V121H251.705V105.488H255.625ZM268.094 105.264C269.942 105.264 271.436 105.852 272.574 107.028C273.713 108.185 274.282 109.809 274.282 111.9V121H270.362V112.432C270.362 111.2 270.054 110.257 269.438 109.604C268.822 108.932 267.982 108.596 266.918 108.596C265.836 108.596 264.977 108.932 264.342 109.604C263.726 110.257 263.418 111.2 263.418 112.432V121H259.498V105.488H263.418V107.42C263.941 106.748 264.604 106.225 265.406 105.852C266.228 105.46 267.124 105.264 268.094 105.264ZM299.102 112.908C299.102 113.468 299.065 113.972 298.99 114.42H287.65C287.743 115.54 288.135 116.417 288.826 117.052C289.517 117.687 290.366 118.004 291.374 118.004C292.83 118.004 293.866 117.379 294.482 116.128H298.71C298.262 117.621 297.403 118.853 296.134 119.824C294.865 120.776 293.306 121.252 291.458 121.252C289.965 121.252 288.621 120.925 287.426 120.272C286.25 119.6 285.326 118.657 284.654 117.444C284.001 116.231 283.674 114.831 283.674 113.244C283.674 111.639 284.001 110.229 284.654 109.016C285.307 107.803 286.222 106.869 287.398 106.216C288.574 105.563 289.927 105.236 291.458 105.236C292.933 105.236 294.249 105.553 295.406 106.188C296.582 106.823 297.487 107.728 298.122 108.904C298.775 110.061 299.102 111.396 299.102 112.908ZM295.042 111.788C295.023 110.78 294.659 109.977 293.95 109.38C293.241 108.764 292.373 108.456 291.346 108.456C290.375 108.456 289.554 108.755 288.882 109.352C288.229 109.931 287.827 110.743 287.678 111.788H295.042ZM300.955 113.188C300.955 111.62 301.263 110.229 301.879 109.016C302.514 107.803 303.363 106.869 304.427 106.216C305.51 105.563 306.714 105.236 308.039 105.236C309.197 105.236 310.205 105.469 311.063 105.936C311.941 106.403 312.641 106.991 313.163 107.7V105.488H317.111V121H313.163V118.732C312.659 119.46 311.959 120.067 311.063 120.552C310.186 121.019 309.169 121.252 308.011 121.252C306.705 121.252 305.51 120.916 304.427 120.244C303.363 119.572 302.514 118.629 301.879 117.416C301.263 116.184 300.955 114.775 300.955 113.188ZM313.163 113.244C313.163 112.292 312.977 111.48 312.603 110.808C312.23 110.117 311.726 109.595 311.091 109.24C310.457 108.867 309.775 108.68 309.047 108.68C308.319 108.68 307.647 108.857 307.031 109.212C306.415 109.567 305.911 110.089 305.519 110.78C305.146 111.452 304.959 112.255 304.959 113.188C304.959 114.121 305.146 114.943 305.519 115.652C305.911 116.343 306.415 116.875 307.031 117.248C307.666 117.621 308.338 117.808 309.047 117.808C309.775 117.808 310.457 117.631 311.091 117.276C311.726 116.903 312.23 116.38 312.603 115.708C312.977 115.017 313.163 114.196 313.163 113.244ZM319.932 113.244C319.932 111.639 320.258 110.239 320.912 109.044C321.565 107.831 322.47 106.897 323.628 106.244C324.785 105.572 326.11 105.236 327.604 105.236C329.526 105.236 331.113 105.721 332.364 106.692C333.633 107.644 334.482 108.988 334.912 110.724H330.684C330.46 110.052 330.077 109.529 329.536 109.156C329.013 108.764 328.36 108.568 327.576 108.568C326.456 108.568 325.569 108.979 324.916 109.8C324.262 110.603 323.936 111.751 323.936 113.244C323.936 114.719 324.262 115.867 324.916 116.688C325.569 117.491 326.456 117.892 327.576 117.892C329.162 117.892 330.198 117.183 330.684 115.764H334.912C334.482 117.444 333.633 118.779 332.364 119.768C331.094 120.757 329.508 121.252 327.604 121.252C326.11 121.252 324.785 120.925 323.628 120.272C322.47 119.6 321.565 118.667 320.912 117.472C320.258 116.259 319.932 114.849 319.932 113.244ZM346.52 105.264C347.696 105.264 348.741 105.525 349.656 106.048C350.57 106.552 351.28 107.308 351.784 108.316C352.306 109.305 352.568 110.5 352.568 111.9V121H348.648V112.432C348.648 111.2 348.34 110.257 347.724 109.604C347.108 108.932 346.268 108.596 345.204 108.596C344.121 108.596 343.262 108.932 342.628 109.604C342.012 110.257 341.704 111.2 341.704 112.432V121H337.784V100.28H341.704V107.42C342.208 106.748 342.88 106.225 343.72 105.852C344.56 105.46 345.493 105.264 346.52 105.264ZM99.868 159.252C98.5987 159.252 97.46 159.028 96.452 158.58C95.444 158.113 94.6413 157.488 94.044 156.704C93.4653 155.92 93.148 155.052 93.092 154.1H97.04C97.1147 154.697 97.404 155.192 97.908 155.584C98.4307 155.976 99.0747 156.172 99.84 156.172C100.587 156.172 101.165 156.023 101.576 155.724C102.005 155.425 102.22 155.043 102.22 154.576C102.22 154.072 101.959 153.699 101.436 153.456C100.932 153.195 100.12 152.915 99 152.616C97.8427 152.336 96.8907 152.047 96.144 151.748C95.416 151.449 94.7813 150.992 94.24 150.376C93.7173 149.76 93.456 148.929 93.456 147.884C93.456 147.025 93.6987 146.241 94.184 145.532C94.688 144.823 95.3973 144.263 96.312 143.852C97.2453 143.441 98.3373 143.236 99.588 143.236C101.436 143.236 102.911 143.703 104.012 144.636C105.113 145.551 105.72 146.792 105.832 148.36H102.08C102.024 147.744 101.763 147.259 101.296 146.904C100.848 146.531 100.241 146.344 99.476 146.344C98.7667 146.344 98.216 146.475 97.824 146.736C97.4507 146.997 97.264 147.361 97.264 147.828C97.264 148.351 97.5253 148.752 98.048 149.032C98.5707 149.293 99.3827 149.564 100.484 149.844C101.604 150.124 102.528 150.413 103.256 150.712C103.984 151.011 104.609 151.477 105.132 152.112C105.673 152.728 105.953 153.549 105.972 154.576C105.972 155.472 105.72 156.275 105.216 156.984C104.731 157.693 104.021 158.253 103.088 158.664C102.173 159.056 101.1 159.252 99.868 159.252ZM117.926 143.264C119.102 143.264 120.147 143.525 121.062 144.048C121.976 144.552 122.686 145.308 123.19 146.316C123.712 147.305 123.974 148.5 123.974 149.9V159H120.054V150.432C120.054 149.2 119.746 148.257 119.13 147.604C118.514 146.932 117.674 146.596 116.61 146.596C115.527 146.596 114.668 146.932 114.034 147.604C113.418 148.257 113.11 149.2 113.11 150.432V159H109.19V138.28H113.11V145.42C113.614 144.748 114.286 144.225 115.126 143.852C115.966 143.46 116.899 143.264 117.926 143.264ZM129.69 141.64C128.999 141.64 128.42 141.425 127.954 140.996C127.506 140.548 127.282 139.997 127.282 139.344C127.282 138.691 127.506 138.149 127.954 137.72C128.42 137.272 128.999 137.048 129.69 137.048C130.38 137.048 130.95 137.272 131.398 137.72C131.864 138.149 132.098 138.691 132.098 139.344C132.098 139.997 131.864 140.548 131.398 140.996C130.95 141.425 130.38 141.64 129.69 141.64ZM131.622 143.488V159H127.702V143.488H131.622ZM139.415 145.728C139.919 145.019 140.609 144.431 141.487 143.964C142.383 143.479 143.4 143.236 144.539 143.236C145.864 143.236 147.059 143.563 148.123 144.216C149.205 144.869 150.055 145.803 150.671 147.016C151.305 148.211 151.623 149.601 151.623 151.188C151.623 152.775 151.305 154.184 150.671 155.416C150.055 156.629 149.205 157.572 148.123 158.244C147.059 158.916 145.864 159.252 144.539 159.252C143.4 159.252 142.392 159.019 141.515 158.552C140.656 158.085 139.956 157.497 139.415 156.788V166.392H135.495V143.488H139.415V145.728ZM147.619 151.188C147.619 150.255 147.423 149.452 147.031 148.78C146.657 148.089 146.153 147.567 145.519 147.212C144.903 146.857 144.231 146.68 143.503 146.68C142.793 146.68 142.121 146.867 141.487 147.24C140.871 147.595 140.367 148.117 139.975 148.808C139.601 149.499 139.415 150.311 139.415 151.244C139.415 152.177 139.601 152.989 139.975 153.68C140.367 154.371 140.871 154.903 141.487 155.276C142.121 155.631 142.793 155.808 143.503 155.808C144.231 155.808 144.903 155.621 145.519 155.248C146.153 154.875 146.657 154.343 147.031 153.652C147.423 152.961 147.619 152.14 147.619 151.188ZM173.735 143.264C175.639 143.264 177.17 143.852 178.327 145.028C179.503 146.185 180.091 147.809 180.091 149.9V159H176.171V150.432C176.171 149.219 175.863 148.295 175.247 147.66C174.631 147.007 173.791 146.68 172.727 146.68C171.663 146.68 170.814 147.007 170.179 147.66C169.563 148.295 169.255 149.219 169.255 150.432V159H165.335V150.432C165.335 149.219 165.027 148.295 164.411 147.66C163.795 147.007 162.955 146.68 161.891 146.68C160.808 146.68 159.95 147.007 159.315 147.66C158.699 148.295 158.391 149.219 158.391 150.432V159H154.471V143.488H158.391V145.364C158.895 144.711 159.539 144.197 160.323 143.824C161.126 143.451 162.003 143.264 162.955 143.264C164.168 143.264 165.251 143.525 166.203 144.048C167.155 144.552 167.892 145.28 168.415 146.232C168.919 145.336 169.647 144.617 170.599 144.076C171.57 143.535 172.615 143.264 173.735 143.264ZM198.231 150.908C198.231 151.468 198.194 151.972 198.119 152.42H186.779C186.872 153.54 187.264 154.417 187.955 155.052C188.646 155.687 189.495 156.004 190.503 156.004C191.959 156.004 192.995 155.379 193.611 154.128H197.839C197.391 155.621 196.532 156.853 195.263 157.824C193.994 158.776 192.435 159.252 190.587 159.252C189.094 159.252 187.75 158.925 186.555 158.272C185.379 157.6 184.455 156.657 183.783 155.444C183.13 154.231 182.803 152.831 182.803 151.244C182.803 149.639 183.13 148.229 183.783 147.016C184.436 145.803 185.351 144.869 186.527 144.216C187.703 143.563 189.056 143.236 190.587 143.236C192.062 143.236 193.378 143.553 194.535 144.188C195.711 144.823 196.616 145.728 197.251 146.904C197.904 148.061 198.231 149.396 198.231 150.908ZM194.171 149.788C194.152 148.78 193.788 147.977 193.079 147.38C192.37 146.764 191.502 146.456 190.475 146.456C189.504 146.456 188.683 146.755 188.011 147.352C187.358 147.931 186.956 148.743 186.807 149.788H194.171ZM209.688 143.264C211.536 143.264 213.029 143.852 214.168 145.028C215.307 146.185 215.876 147.809 215.876 149.9V159H211.956V150.432C211.956 149.2 211.648 148.257 211.032 147.604C210.416 146.932 209.576 146.596 208.512 146.596C207.429 146.596 206.571 146.932 205.936 147.604C205.32 148.257 205.012 149.2 205.012 150.432V159H201.092V143.488H205.012V145.42C205.535 144.748 206.197 144.225 207 143.852C207.821 143.46 208.717 143.264 209.688 143.264ZM224.168 146.708V154.212C224.168 154.735 224.289 155.117 224.532 155.36C224.793 155.584 225.223 155.696 225.82 155.696H227.64V159H225.176C221.872 159 220.22 157.395 220.22 154.184V146.708H218.372V143.488H220.22V139.652H224.168V143.488H227.64V146.708H224.168Z" fill="white"/>
<defs>
<filter id="filter0_d_2_71" x="0" y="0" width="472" height="859" filterUnits="userSpaceOnUse" color-interpolation-filters="sRGB">
<feFlood flood-opacity="0" result="BackgroundImageFix"/>
<feColorMatrix in="SourceAlpha" type="matrix" values="0 0 0 0 0 0 0 0 0 0 0 0 0 0 0 0 0 0 127 0" result="hardAlpha"/>
<feOffset dy="24"/>
<feGaussianBlur stdDeviation="34"/>
<feComposite in2="hardAlpha" operator="out"/>
<feColorMatrix type="matrix" values="0 0 0 0 0 0 0 0 0 0 0 0 0 0 0 0 0 0 0.07 0"/>
<feBlend mode="normal" in2="BackgroundImageFix" result="effect1_dropShadow_2_71"/>
<feBlend mode="normal" in="SourceGraphic" in2="effect1_dropShadow_2_71" result="shape"/>
</filter>
<filter id="filter1_d_2_71" x="352" y="556" width="216" height="221" filterUnits="userSpaceOnUse" color-interpolation-filters="sRGB">
<feFlood flood-opacity="0" result="BackgroundImageFix"/>
<feColorMatrix in="SourceAlpha" type="matrix" values="0 0 0 0 0 0 0 0 0 0 0 0 0 0 0 0 0 0 127 0" result="hardAlpha"/>
<feOffset dy="14"/>
<feGaussianBlur stdDeviation="22"/>
<feComposite in2="hardAlpha" operator="out"/>
<feColorMatrix type="matrix" values="0 0 0 0 0 0 0 0 0 0 0 0 0 0 0 0 0 0 0.05 0"/>
<feBlend mode="normal" in2="BackgroundImageFix" result="effect1_dropShadow_2_71"/>
<feBlend mode="normal" in="SourceGraphic" in2="effect1_dropShadow_2_71" result="shape"/>
</filter>
<filter id="filter2_d_2_71" x="200" y="556" width="216" height="221" filterUnits="userSpaceOnUse" color-interpolation-filters="sRGB">
<feFlood flood-opacity="0" result="BackgroundImageFix"/>
<feColorMatrix in="SourceAlpha" type="matrix" values="0 0 0 0 0 0 0 0 0 0 0 0 0 0 0 0 0 0 127 0" result="hardAlpha"/>
<feOffset dy="14"/>
<feGaussianBlur stdDeviation="22"/>
<feComposite in2="hardAlpha" operator="out"/>
<feColorMatrix type="matrix" values="0 0 0 0 0 0 0 0 0 0 0 0 0 0 0 0 0 0 0.05 0"/>
<feBlend mode="normal" in2="BackgroundImageFix" result="effect1_dropShadow_2_71"/>
<feBlend mode="normal" in="SourceGraphic" in2="effect1_dropShadow_2_71" result="shape"/>
</filter>
<filter id="filter3_d_2_71" x="48" y="556" width="216" height="221" filterUnits="userSpaceOnUse" color-interpolation-filters="sRGB">
<feFlood flood-opacity="0" result="BackgroundImageFix"/>
<feColorMatrix in="SourceAlpha" type="matrix" values="0 0 0 0 0 0 0 0 0 0 0 0 0 0 0 0 0 0 127 0" result="hardAlpha"/>
<feOffset dy="14"/>
<feGaussianBlur stdDeviation="22"/>
<feComposite in2="hardAlpha" operator="out"/>
<feColorMatrix type="matrix" values="0 0 0 0 0 0 0 0 0 0 0 0 0 0 0 0 0 0 0.05 0"/>
<feBlend mode="normal" in2="BackgroundImageFix" result="effect1_dropShadow_2_71"/>
<feBlend mode="normal" in="SourceGraphic" in2="effect1_dropShadow_2_71" result="shape"/>
</filter>
</defs>
</svg>
