<svg width="38" height="38" viewBox="0 0 38 38" fill="none" xmlns="http://www.w3.org/2000/svg">
<path d="M36.0406 10.6875L29.6875 1.1875H8.31248L1.95935 10.6875H36.0406V10.6875Z" fill="white"/>
<path d="M1.1875 13.0625V36.8125H36.8125V13.0625H1.1875ZM24.9375 22.5625H13.0625C12.4326 22.5625 11.8285 22.3123 11.3831 21.8669C10.9377 21.4215 10.6875 20.8174 10.6875 20.1875C10.6875 19.5576 10.9377 18.9535 11.3831 18.5081C11.8285 18.0627 12.4326 17.8125 13.0625 17.8125H24.9375C25.5674 17.8125 26.1715 18.0627 26.6169 18.5081C27.0623 18.9535 27.3125 19.5576 27.3125 20.1875C27.3125 20.8174 27.0623 21.4215 26.6169 21.8669C26.1715 22.3123 25.5674 22.5625 24.9375 22.5625Z" fill="white"/>
</svg>
